<svg width="24" height="24" viewBox="0 0 24 24" fill="none" xmlns="http://www.w3.org/2000/svg">
<path opacity="0.3" d="M18.7,21.6c-0.5,0.3-1.1,0.2-1.5-0.4L6.1,3.9C5.7,3.4,5.8,2.8,6.3,2.4s1.1-0.2,1.5,0.4l11.2,17.2
	C19.3,20.6,19.2,21.2,18.7,21.6z" fill="currentColor"/>
	<path d="M16.4,11.7c-0.5-0.3-1-0.6-1.6-0.8c-0.3-0.1-0.7-0.2-1.1-0.3l3.8,5.8c0.2-0.5,0.3-1.1,0.3-1.7c0-0.7-0.2-1.3-0.4-1.8
		C17.2,12.4,16.8,12,16.4,11.7z" fill="currentColor"/>
	<path d="M11.3,6.9c0.1,0,0.1,0,0.2-0.1v0.3l2,3.1V7c0.1,0.1,0.3,0.1,0.4,0.2c0.4,0.3,0.7,0.7,0.9,1.2c0.2,0.4,0.4,0.7,0.5,0.8
		c0.1,0.1,0.4,0.2,0.7,0.2c0.4,0,0.7-0.1,0.9-0.4c0.2-0.3,0.3-0.6,0.3-0.9c0-0.4-0.1-0.7-0.3-1.1c-0.2-0.4-0.5-0.8-0.9-1.1
		s-0.9-0.6-1.5-0.8c-0.3-0.1-0.7-0.2-1-0.2V3c0-0.6-0.4-1-1-1s-1,0.4-1,1v1.8C11,4.9,10.6,5,10.1,5.1L11.3,6.9z" fill="currentColor"/>
	<path d="M11.5,13.7v3c-0.3,0-0.5-0.1-0.7-0.2c-0.3-0.2-0.6-0.4-0.8-0.7s-0.4-0.7-0.6-1.1c-0.1-0.3-0.3-0.6-0.5-0.8
		c-0.2-0.2-0.4-0.3-0.7-0.3c-0.4,0-0.7,0.2-0.9,0.4C7.1,14.3,7,14.6,7,14.9c0,0.6,0.2,1.2,0.6,1.8c0.4,0.7,0.9,1.1,1.5,1.5
		c0.7,0.4,1.5,0.6,2.4,0.7V21c0,0.6,0.4,1,1,1s1-0.4,1-1v-2.1c0.4-0.1,0.8-0.2,1.2-0.3L11.5,13.7z" fill="currentColor"/>
	<path d="M9.4,11.8c0.3,0.2,0.7,0.3,1.2,0.5L7.4,7.4C7.3,7.8,7.2,8.2,7.2,8.6c0,0.8,0.2,1.5,0.6,2S8.7,11.5,9.4,11.8z" fill="currentColor"/>
</svg>
