<svg width="24" height="24" viewBox="0 0 24 24" fill="none" xmlns="http://www.w3.org/2000/svg">
<path d="M12 5.75C12.8284 5.75 13.5 5.07843 13.5 4.25C13.5 3.42157 12.8284 2.75 12 2.75C11.1716 2.75 10.5 3.42157 10.5 4.25C10.5 5.07843 11.1716 5.75 12 5.75Z" fill="currentColor"/>
<path d="M12 10.2598C12.8284 10.2598 13.5 9.58819 13.5 8.75977C13.5 7.93134 12.8284 7.25977 12 7.25977C11.1716 7.25977 10.5 7.93134 10.5 8.75977C10.5 9.58819 11.1716 10.2598 12 10.2598Z" fill="currentColor"/>
<path d="M7.75 8C8.57843 8 9.25 7.32843 9.25 6.5C9.25 5.67157 8.57843 5 7.75 5C6.92157 5 6.25 5.67157 6.25 6.5C6.25 7.32843 6.92157 8 7.75 8Z" fill="currentColor"/>
<path d="M16.25 8.00977C17.0784 8.00977 17.75 7.33819 17.75 6.50977C17.75 5.68134 17.0784 5.00977 16.25 5.00977C15.4216 5.00977 14.75 5.68134 14.75 6.50977C14.75 7.33819 15.4216 8.00977 16.25 8.00977Z" fill="currentColor"/>
<path d="M16.25 12.2598C17.0784 12.2598 17.75 11.5882 17.75 10.7598C17.75 9.93134 17.0784 9.25977 16.25 9.25977C15.4216 9.25977 14.75 9.93134 14.75 10.7598C14.75 11.5882 15.4216 12.2598 16.25 12.2598Z" fill="currentColor"/>
<path d="M20.5 10.25C21.3284 10.25 22 9.57843 22 8.75C22 7.92157 21.3284 7.25 20.5 7.25C19.6716 7.25 19 7.92157 19 8.75C19 9.57843 19.6716 10.25 20.5 10.25Z" fill="currentColor"/>
<path d="M12 14.25C12.8284 14.25 13.5 13.5784 13.5 12.75C13.5 11.9216 12.8284 11.25 12 11.25C11.1716 11.25 10.5 11.9216 10.5 12.75C10.5 13.5784 11.1716 14.25 12 14.25Z" fill="currentColor"/>
<path d="M7.75 12.2598C8.57843 12.2598 9.25 11.5882 9.25 10.7598C9.25 9.93134 8.57843 9.25977 7.75 9.25977C6.92157 9.25977 6.25 9.93134 6.25 10.7598C6.25 11.5882 6.92157 12.2598 7.75 12.2598Z" fill="currentColor"/>
<path d="M3.5 10.25C4.32843 10.25 5 9.57843 5 8.75C5 7.92157 4.32843 7.25 3.5 7.25C2.67157 7.25 2 7.92157 2 8.75C2 9.57843 2.67157 10.25 3.5 10.25Z" fill="currentColor"/>
<path opacity="0.3" d="M3.5 13.75C4.05228 13.75 4.5 13.3023 4.5 12.75C4.5 12.1977 4.05228 11.75 3.5 11.75C2.94772 11.75 2.5 12.1977 2.5 12.75C2.5 13.3023 2.94772 13.75 3.5 13.75Z" fill="currentColor"/>
<path opacity="0.3" d="M7.75 15.7598C8.30228 15.7598 8.75 15.3121 8.75 14.7598C8.75 14.2075 8.30228 13.7598 7.75 13.7598C7.19772 13.7598 6.75 14.2075 6.75 14.7598C6.75 15.3121 7.19772 15.7598 7.75 15.7598Z" fill="currentColor"/>
<path opacity="0.3" d="M7.75 15.7598C8.30228 15.7598 8.75 15.3121 8.75 14.7598C8.75 14.2075 8.30228 13.7598 7.75 13.7598C7.19772 13.7598 6.75 14.2075 6.75 14.7598C6.75 15.3121 7.19772 15.7598 7.75 15.7598Z" fill="currentColor"/>
<path opacity="0.3" d="M12 17.75C12.5523 17.75 13 17.3023 13 16.75C13 16.1977 12.5523 15.75 12 15.75C11.4477 15.75 11 16.1977 11 16.75C11 17.3023 11.4477 17.75 12 17.75Z" fill="currentColor"/>
<path opacity="0.3" d="M12 17.75C12.5523 17.75 13 17.3023 13 16.75C13 16.1977 12.5523 15.75 12 15.75C11.4477 15.75 11 16.1977 11 16.75C11 17.3023 11.4477 17.75 12 17.75Z" fill="currentColor"/>
<path opacity="0.3" d="M16.25 15.7598C16.8023 15.7598 17.25 15.3121 17.25 14.7598C17.25 14.2075 16.8023 13.7598 16.25 13.7598C15.6977 13.7598 15.25 14.2075 15.25 14.7598C15.25 15.3121 15.6977 15.7598 16.25 15.7598Z" fill="currentColor"/>
<path opacity="0.3" d="M16.25 15.7598C16.8023 15.7598 17.25 15.3121 17.25 14.7598C17.25 14.2075 16.8023 13.7598 16.25 13.7598C15.6977 13.7598 15.25 14.2075 15.25 14.7598C15.25 15.3121 15.6977 15.7598 16.25 15.7598Z" fill="currentColor"/>
<path opacity="0.3" d="M20.5 13.75C21.0523 13.75 21.5 13.3023 21.5 12.75C21.5 12.1977 21.0523 11.75 20.5 11.75C19.9477 11.75 19.5 12.1977 19.5 12.75C19.5 13.3023 19.9477 13.75 20.5 13.75Z" fill="currentColor"/>
<path opacity="0.3" d="M20.5 13.75C21.0523 13.75 21.5 13.3023 21.5 12.75C21.5 12.1977 21.0523 11.75 20.5 11.75C19.9477 11.75 19.5 12.1977 19.5 12.75C19.5 13.3023 19.9477 13.75 20.5 13.75Z" fill="currentColor"/>
<path opacity="0.3" d="M3.5 13.75C4.05228 13.75 4.5 13.3023 4.5 12.75C4.5 12.1977 4.05228 11.75 3.5 11.75C2.94772 11.75 2.5 12.1977 2.5 12.75C2.5 13.3023 2.94772 13.75 3.5 13.75Z" fill="currentColor"/>
<path opacity="0.3" d="M20.5 16.5C20.9142 16.5 21.25 16.1642 21.25 15.75C21.25 15.3358 20.9142 15 20.5 15C20.0858 15 19.75 15.3358 19.75 15.75C19.75 16.1642 20.0858 16.5 20.5 16.5Z" fill="currentColor"/>
<path opacity="0.3" d="M16.25 18.7598C16.6642 18.7598 17 18.424 17 18.0098C17 17.5956 16.6642 17.2598 16.25 17.2598C15.8358 17.2598 15.5 17.5956 15.5 18.0098C15.5 18.424 15.8358 18.7598 16.25 18.7598Z" fill="currentColor"/>
<path opacity="0.3" d="M12 21C12.4142 21 12.75 20.6642 12.75 20.25C12.75 19.8358 12.4142 19.5 12 19.5C11.5858 19.5 11.25 19.8358 11.25 20.25C11.25 20.6642 11.5858 21 12 21Z" fill="currentColor"/>
<path opacity="0.3" d="M7.75 18.75C8.16421 18.75 8.5 18.4142 8.5 18C8.5 17.5858 8.16421 17.25 7.75 17.25C7.33579 17.25 7 17.5858 7 18C7 18.4142 7.33579 18.75 7.75 18.75Z" fill="currentColor"/>
<path opacity="0.3" d="M3.5 16.5C3.91421 16.5 4.25 16.1642 4.25 15.75C4.25 15.3358 3.91421 15 3.5 15C3.08579 15 2.75 15.3358 2.75 15.75C2.75 16.1642 3.08579 16.5 3.5 16.5Z" fill="currentColor"/>
</svg>
