<svg width="20" height="20" viewBox="0 0 20 20" fill="none" xmlns="http://www.w3.org/2000/svg">
<path opacity="0.3" d="M0.799988 8.89031V14.5803C0.799988 16.0178 1.37102 17.3964 2.38747 18.4128C3.40392 19.4293 4.78251 20.0003 6.21999 20.0003H13.78C14.4918 20.0003 15.1965 19.8601 15.8541 19.5877C16.5117 19.3154 17.1092 18.9161 17.6125 18.4128C18.1158 17.9095 18.515 17.312 18.7874 16.6545C19.0598 15.9969 19.2 15.2921 19.2 14.5803V8.89031C19.2 8.67284 19.1136 8.46426 18.9598 8.31048C18.806 8.15671 18.5975 8.07031 18.38 8.07031H1.61999C1.40251 8.07031 1.19394 8.15671 1.04016 8.31048C0.88638 8.46426 0.799988 8.67284 0.799988 8.89031Z" fill="currentColor"/>
<path d="M18.85 5.58C18.8966 5.70493 18.9124 5.83925 18.8961 5.97159C18.8798 6.10392 18.8318 6.23038 18.7563 6.34025C18.6807 6.45013 18.5798 6.54019 18.4621 6.60281C18.3444 6.66543 18.2133 6.69877 18.08 6.7H2.07999C1.91701 6.70115 1.75622 6.66245 1.61162 6.58726C1.46701 6.51207 1.34298 6.40268 1.25031 6.26861C1.15764 6.13453 1.09915 5.97984 1.07992 5.81799C1.06069 5.65615 1.08132 5.49205 1.13999 5.34C1.44334 4.61264 1.90082 3.95973 2.48089 3.42627C3.06097 2.89281 3.74983 2.4915 4.49999 2.25V0.69C4.49867 0.599863 4.51528 0.510362 4.54886 0.426703C4.58244 0.343044 4.63232 0.266897 4.69559 0.20269C4.75887 0.138483 4.83428 0.0874985 4.91744 0.0527017C5.0006 0.0179049 5.08985 -9.74424e-06 5.17999 3.97622e-09C5.36299 3.97622e-09 5.5385 0.0726961 5.6679 0.202096C5.7973 0.331496 5.86999 0.507001 5.86999 0.69V2C5.99999 2 6.07999 2 6.18999 2H9.45999V0.69C9.45999 0.507001 9.53269 0.331496 9.66209 0.202096C9.79149 0.0726961 9.96699 3.97622e-09 10.15 3.97622e-09C10.333 3.97622e-09 10.5085 0.0726961 10.6379 0.202096C10.7673 0.331496 10.84 0.507001 10.84 0.69V2H13.74C13.85 2 13.95 2 14.06 2V0.69C14.0587 0.599863 14.0753 0.510362 14.1089 0.426703C14.1424 0.343044 14.1923 0.266897 14.2556 0.20269C14.3189 0.138483 14.3943 0.0874985 14.4774 0.0527017C14.5606 0.0179049 14.6498 -9.74424e-06 14.74 3.97622e-09C14.923 3.97622e-09 15.0985 0.0726961 15.2279 0.202096C15.3573 0.331496 15.43 0.507001 15.43 0.69V2.25C16.215 2.50985 16.9307 2.94461 17.5232 3.52146C18.1156 4.09832 18.5693 4.8022 18.85 5.58ZM6.72999 11C6.56232 11.002 6.39898 11.0535 6.26052 11.1481C6.12206 11.2427 6.01467 11.3761 5.95186 11.5316C5.88906 11.6871 5.87365 11.8577 5.90756 12.0219C5.94148 12.1861 6.02322 12.3366 6.14248 12.4545C6.26174 12.5724 6.41321 12.6523 6.57781 12.6843C6.74242 12.7163 6.91281 12.6989 7.06754 12.6343C7.22228 12.5697 7.35444 12.4607 7.44741 12.3212C7.54037 12.1816 7.58998 12.0177 7.58999 11.85C7.58736 11.6237 7.49559 11.4075 7.3346 11.2483C7.1736 11.0892 6.95636 11 6.72999 11ZM9.93999 11C9.77232 11.002 9.60898 11.0535 9.47052 11.1481C9.33206 11.2427 9.22467 11.3761 9.16186 11.5316C9.09906 11.6871 9.08365 11.8577 9.11756 12.0219C9.15148 12.1861 9.23322 12.3366 9.35248 12.4545C9.47174 12.5724 9.62321 12.6523 9.78781 12.6843C9.95242 12.7163 10.1228 12.6989 10.2775 12.6343C10.4323 12.5697 10.5644 12.4607 10.6574 12.3212C10.7504 12.1816 10.8 12.0177 10.8 11.85C10.7974 11.6237 10.7056 11.4075 10.5446 11.2483C10.3836 11.0892 10.1664 11 9.93999 11ZM13.18 11C13.0684 11 12.9578 11.022 12.8547 11.0647C12.7516 11.1074 12.6579 11.17 12.579 11.249C12.5 11.3279 12.4374 11.4216 12.3947 11.5247C12.352 11.6278 12.33 11.7384 12.33 11.85C12.33 11.9616 12.352 12.0722 12.3947 12.1753C12.4374 12.2784 12.5 12.3721 12.579 12.451C12.6579 12.53 12.7516 12.5926 12.8547 12.6353C12.9578 12.678 13.0684 12.7 13.18 12.7C13.2916 12.7 13.4021 12.678 13.5053 12.6353C13.6084 12.5926 13.7021 12.53 13.781 12.451C13.86 12.3721 13.9226 12.2784 13.9653 12.1753C14.008 12.0722 14.03 11.9616 14.03 11.85C14.03 11.7384 14.008 11.6278 13.9653 11.5247C13.9226 11.4216 13.86 11.3279 13.781 11.249C13.7021 11.17 13.6084 11.1074 13.5053 11.0647C13.4021 11.022 13.2916 11 13.18 11ZM6.71999 14.2C6.55232 14.202 6.38898 14.2535 6.25051 14.3481C6.11205 14.4427 6.00467 14.5761 5.94186 14.7316C5.87906 14.8871 5.86365 15.0577 5.89756 15.2219C5.93148 15.3861 6.01322 15.5366 6.13248 15.6545C6.25174 15.7724 6.40321 15.8523 6.56781 15.8843C6.73242 15.9163 6.90281 15.8989 7.05754 15.8343C7.21228 15.7697 7.34444 15.6607 7.43741 15.5212C7.53037 15.3816 7.57998 15.2177 7.57999 15.05C7.58 14.9375 7.55769 14.8262 7.51435 14.7224C7.47101 14.6186 7.4075 14.5245 7.32751 14.4454C7.24752 14.3663 7.15263 14.3039 7.04835 14.2618C6.94406 14.2197 6.83246 14.1987 6.71999 14.2ZM9.92999 14.2C9.76232 14.202 9.59898 14.2535 9.46052 14.3481C9.32205 14.4427 9.21467 14.5761 9.15186 14.7316C9.08906 14.8871 9.07365 15.0577 9.10756 15.2219C9.14148 15.3861 9.22322 15.5366 9.34248 15.6545C9.46174 15.7724 9.61321 15.8523 9.77781 15.8843C9.94242 15.9163 10.1128 15.8989 10.2675 15.8343C10.4223 15.7697 10.5544 15.6607 10.6474 15.5212C10.7404 15.3816 10.79 15.2177 10.79 15.05C10.79 14.9375 10.7677 14.8262 10.7243 14.7224C10.681 14.6186 10.6175 14.5245 10.5375 14.4454C10.4575 14.3663 10.3626 14.3039 10.2583 14.2618C10.1541 14.2197 10.0425 14.1987 9.92999 14.2ZM13.16 14.2C12.9928 14.2039 12.8305 14.2571 12.6933 14.3529C12.5562 14.4486 12.4504 14.5827 12.3891 14.7383C12.3278 14.894 12.3138 15.0642 12.3488 15.2277C12.3839 15.3913 12.4663 15.5409 12.586 15.6578C12.7056 15.7746 12.8571 15.8536 13.0214 15.8848C13.1857 15.916 13.3556 15.8981 13.5097 15.8332C13.6639 15.7683 13.7955 15.6594 13.888 15.5201C13.9806 15.3808 14.0299 15.2173 14.03 15.05C14.0287 14.9371 14.0051 14.8255 13.9607 14.7216C13.9163 14.6178 13.8518 14.5237 13.7711 14.4448C13.6903 14.3659 13.5947 14.3036 13.4899 14.2616C13.385 14.2196 13.2729 14.1987 13.16 14.2Z" fill="currentColor"/>
</svg>
