<svg id="Layer_1" data-name="Layer 1" xmlns="http://www.w3.org/2000/svg" viewBox="0 0 20 20"><defs><style>.cls-1{isolation:isolate;opacity:0.3;}.cls-2{fill:#d9214e;}</style></defs><path class="cls-1" d="M10,8.6l2.8-2.8a1,1,0,0,1,1.4,1.4L11.4,10ZM8.6,10,5.8,12.8a1,1,0,0,0,0,1.4,1.08,1.08,0,0,0,.7.3,1.08,1.08,0,0,0,.7-.3L10,11.4Z"/><path class="cls-2" d="M20,10A10,10,0,1,1,10,0,10,10,0,0,1,20,10Zm-8.6,0,2.8-2.8a1,1,0,0,0-1.4-1.4L10,8.6,7.2,5.8A1,1,0,0,0,5.8,7.2L8.6,10,5.8,12.8a1,1,0,0,0,0,1.4,1.08,1.08,0,0,0,.7.3,1.08,1.08,0,0,0,.7-.3L10,11.4l2.8,2.8a1,1,0,0,0,1.4,0,1,1,0,0,0,0-1.4Z"/></svg>
