<?xml version="1.0" encoding="utf-8"?>
<!-- Generator: Adobe Illustrator 26.3.0, SVG Export Plug-In . SVG Version: 6.00 Build 0)  -->
<svg version="1.1" id="Layer_1" xmlns="http://www.w3.org/2000/svg" xmlns:xlink="http://www.w3.org/1999/xlink" x="0px" y="0px"
	 viewBox="0 0 1920 1080" style="enable-background:new 0 0 1920 1080;" xml:space="preserve">
<style type="text/css">
	.st0{fill:#00315F;}
	.st1{fill: #2667fe;}
</style>
<g>
	<path class="st0" d="M670.5,406.6c-11.5,0-20.9,7.4-20.9,16.5c0,9.2,9.4,16.6,20.9,16.6c6.5,0,12.5-2.3,16.4-6.3l10.3-10.3
		l-10.3-10.3C683,408.9,677,406.6,670.5,406.6"/>
	<path class="st0" d="M708.4,436.6c-8,0-14.5,6.3-14.7,14.4l0,70.1c0,1-0.1,2-0.1,2.9c0,0.5-0.1,1-0.1,1.5c0,0.2-0.1,0.4-0.1,0.6
		c-0.6,5.2-2,9.8-4,13.8c-8.1,15-25.4,18.8-34,19.7c-3.4,0.3-7.3,0.5-11.8,0.5h-1.8c-0.2,0-0.4,0-0.6,0c-0.5,0-0.9,0-1.4-0.1
		c-10.5-0.4-25.1-3-33.4-6.6c-8.5-3.7-16.2-9.1-23.2-16.2c-22.8-23.1-35.9-63.5-35.2-108c1.4-87.9,48.5-127.3,94.6-127.3
		c26.8,0,40.9,4.6,48.4,7c3,1,5,1.7,6.7,1.7c2.1,0,3.8-1.7,4-3.9v-0.2c0.1-1.8-0.9-3.4-2.5-4.4c-7.1-4.4-33.4-10.7-58.5-10.7
		c-35.2,0-67.4,12.7-90.5,35.7c-25.2,25-38.7,60.6-39,103c-0.3,40.8,13.9,78.7,38.9,103.9c8.8,8.9,18.8,16,29.9,21.4h-0.1
		c0,0,22.9,13.5,64.2,13.5c21.5,0,30.7-2.2,30.7-2.2h0c25.2-4.3,48.4-20.8,48.4-45.6V451C722.9,442.9,716.4,436.6,708.4,436.6"/>
	<path class="st0" d="M691.9,385.4c0,6.4,2.3,12.3,6.2,16.3l10.4,10.3l10.2-10.2c4-4,6.4-10,6.4-16.4c0-11.5-7.4-20.9-16.6-20.9
		C699.3,364.5,691.9,373.8,691.9,385.4"/>
	<path class="st0" d="M746.4,406.6c-6.5,0-12.4,2.3-16.4,6.2l-10.3,10.3l10.2,10.3c4,4,10,6.3,16.5,6.3c11.5,0,20.9-7.5,20.9-16.6
		C767.2,414.1,757.9,406.6,746.4,406.6"/>
	<path class="st0" d="M1667.4,350.8c9.5,0,17.3-9.8,17.3-21.9c0-12-7.7-21.8-17.3-21.8c-9.5,0-17.3,9.8-17.3,21.8
		C1650.1,341,1657.8,350.8,1667.4,350.8"/>
	<path class="st0" d="M1491.7,290.1H1464c-2.8,0-4.9,2.2-4.9,4.9c0,2.8,2.2,5,5.1,5c3.8,0,6.6,3.9,6.6,9v246.7
		c0,7.1,5.8,12.4,13.4,12.4c7.4,0,13-5.4,13-12.4V295.6C1497.1,292.2,1495.1,290.1,1491.7,290.1"/>
	<path class="st0" d="M1579.7,290.1H1552c-2.8,0-4.9,2.2-4.9,4.9c0,2.8,2.2,5,5.1,5c3.8,0,6.6,3.9,6.6,9v246.7
		c0,7.1,5.8,12.4,13.4,12.4c7.4,0,13-5.4,13-12.4V295.6C1585.2,292.2,1583.1,290.1,1579.7,290.1"/>
	<path class="st0" d="M1163.9,379c-32,0-46,16-52.1,28.7c-7.5-14.2-23.6-28.7-57.8-28.7c-23.6,0-37.3,8.8-45.3,18.2v-12.7
		c0-3.4-2-5.5-5.4-5.5h-27.7c-2.8,0-5,2.2-5,5c0,2.8,2.2,4.9,5.1,4.9c3.8,0,6.6,3.9,6.6,9.1v157.8c0,7.1,5.8,12.4,13.4,12.4
		c7.4,0,13-5.4,13-12.4V438c0.1-4.6,0.9-16.5,6.6-27.5c7.1-13.6,19.2-20.5,35.9-20.5c11.4,0,20.7,3.5,27.5,10.6
		c14.1,14.6,13.3,39.6,13.3,39.9v115.2c0,8.1,7,12.5,13.5,12.5c7.4,0,13-5.4,13-12.5v-115c0.1-0.6,0.2-2.6,0.2-5.5
		c2.7-40.8,30.5-45.1,42.4-45.1c11.4,0,20.7,3.5,27.5,10.6c14.1,14.6,13.3,39.6,13.3,39.9v115.2c0,8.1,7,12.5,13.5,12.5
		c7.4,0,13-5.4,13-12.5v-115c0-2.2,2-25.4-13.7-42.8C1203.6,385.4,1186.5,379,1163.9,379"/>
	<path class="st0" d="M902.5,456.1L814.7,470c-2.2,0.4-2.1-2.2-2.1-2.2c0.3-14.2,3.1-46.6,21.3-65.2c9-9.2,20.7-13.9,34.9-13.9h0.2
		c4.7,0,46.2,1.6,46.2,56.6C915.1,450.8,913.1,454.3,902.5,456.1 M904.7,387.4c-1.3-0.7-15.5-8.9-35.9-8.9
		c-20.1,0-38.8,9.9-39.5,10.3c-30.1,15.4-47.3,46.4-47.3,85.1c0,41,14.7,70.1,42.6,84.2l0.1,0.1c0.7,0.4,18.2,10.6,43.3,10.6
		c18.8,0,36.7-5.7,53.2-16.9l0.1-0.1c1.7-1.3,2.7-3.7,1.4-5.7c-0.8-1.2-2-1.9-3.4-1.9c-1.4,0-2.5,0.6-2.7,0.8
		c-0.2,0.1-22.1,12.8-46.1,12.8c-17.5,0-31.6-6.7-42-19.8c-9-13.2-14.5-32.6-15.6-54.9c0-0.6,0.3-1.5,1.4-1.6l120.1-18.9
		c2.6-0.4,10.4-1.7,10.4-9c0-1.8-0.2-4.3-0.7-8.4C940.9,418.4,928.4,400,904.7,387.4"/>
	<path class="st0" d="M1386,456.1l-87.8,13.9c-2.2,0.4-2.1-2.2-2.1-2.2c0.3-14.2,3.1-46.6,21.4-65.2c9-9.2,20.7-13.9,34.9-13.9h0.2
		c4.7,0,46.1,1.6,46.1,56.6C1398.7,450.8,1396.6,454.3,1386,456.1 M1388.2,387.4c-1.2-0.7-15.5-8.9-35.9-8.9
		c-20.1,0-38.8,9.9-39.5,10.3c-30.1,15.4-47.3,46.4-47.3,85.1c0,41,14.7,70.1,42.6,84.2l0.1,0.1c0.7,0.4,18.2,10.6,43.3,10.6
		c18.8,0,36.7-5.7,53.2-16.9l0.1-0.1c1.7-1.3,2.7-3.7,1.4-5.7c-0.8-1.2-2-1.9-3.4-1.9c-1.4,0-2.5,0.6-2.7,0.8
		c-0.2,0.1-22.1,12.8-46.1,12.8c-17.4,0-31.6-6.7-42-19.8c-9-13.2-14.5-32.6-15.6-54.9c0-0.6,0.3-1.5,1.4-1.6l120.1-18.9
		c2.6-0.4,10.4-1.7,10.4-9c0-1.8-0.2-4.3-0.7-8.4C1424.5,418.4,1411.9,400,1388.2,387.4"/>
	<path class="st0" d="M1675.3,382.2h-27.7c-2.7,0-4.9,2.2-4.9,4.9c0,2.8,2.2,5,5.1,5c3.8,0,6.6,3.9,6.6,9v154.6
		c0,7.1,5.8,12.4,13.4,12.4c7.4,0,13-5.4,13-12.4V387.7C1680.8,384.3,1678.7,382.2,1675.3,382.2"/>
</g>
<polygon class="st0" points="60.6,761.8 51.2,761.8 51.2,716.6 77.1,716.6 77.1,724.5 60.6,724.5 60.6,736.1 75.9,736.1 75.9,743.9 
	60.6,743.9 "/>
<g>
	<path class="st0" d="M92.2,744.4c0,3.4,0.6,6,1.7,7.8c1.1,1.8,3,2.6,5.5,2.6c2.5,0,4.3-0.9,5.4-2.6c1.1-1.7,1.7-4.3,1.7-7.8
		c0-3.4-0.6-6-1.7-7.7c-1.1-1.7-2.9-2.6-5.5-2.6c-2.5,0-4.3,0.8-5.4,2.5C92.7,738.4,92.2,741,92.2,744.4 M116.1,744.4
		c0,5.6-1.5,10-4.4,13.2c-3,3.2-7.1,4.8-12.4,4.8c-3.3,0-6.2-0.7-8.8-2.2c-2.5-1.5-4.5-3.5-5.8-6.3c-1.4-2.7-2-5.9-2-9.5
		c0-5.6,1.5-10,4.4-13.2c2.9-3.1,7.1-4.7,12.4-4.7c3.3,0,6.2,0.7,8.8,2.2c2.5,1.4,4.5,3.5,5.8,6.2
		C115.4,737.7,116.1,740.8,116.1,744.4"/>
	<path class="st0" d="M155.2,761.8h-9.4v-20.2c0-2.5-0.4-4.4-1.3-5.6c-0.9-1.2-2.3-1.9-4.2-1.9c-2.6,0-4.5,0.9-5.7,2.6
		c-1.2,1.8-1.8,4.7-1.8,8.8v16.2h-9.4v-34.5h7.2l1.3,4.4h0.5c1-1.7,2.5-2.9,4.3-3.8c1.8-0.9,3.9-1.3,6.3-1.3c4,0,7.1,1.1,9.1,3.3
		c2.1,2.2,3.1,5.3,3.1,9.4V761.8z"/>
	<path class="st0" d="M178.7,754.9c2.4,0,4.2-0.7,5.3-2.1c1.1-1.4,1.7-3.8,1.8-7.1v-1c0-3.7-0.6-6.4-1.7-8c-1.1-1.6-3-2.4-5.6-2.4
		c-2.1,0-3.7,0.9-4.9,2.7c-1.2,1.8-1.7,4.4-1.7,7.8c0,3.4,0.6,5.9,1.8,7.6C174.8,754,176.5,754.9,178.7,754.9 M175.4,762.4
		c-4.1,0-7.2-1.6-9.6-4.7c-2.3-3.2-3.5-7.5-3.5-13.1c0-5.7,1.2-10.1,3.5-13.2s5.6-4.7,9.7-4.7c4.3,0,7.7,1.7,10,5.1h0.3
		c-0.5-2.6-0.7-4.9-0.7-6.9v-11.1h9.5v48.1h-7.2l-1.8-4.5h-0.4C183,760.7,179.8,762.4,175.4,762.4"/>
	<path class="st0" d="M223.1,745.8l-3.6,0.1c-2.7,0.1-4.8,0.6-6.1,1.5c-1.3,0.9-2,2.3-2,4.1c0,2.7,1.5,4,4.6,4
		c2.2,0,3.9-0.6,5.2-1.9c1.3-1.3,2-2.9,2-5V745.8z M225.9,761.8l-1.8-4.7h-0.2c-1.6,2-3.2,3.4-4.9,4.2c-1.7,0.8-3.9,1.2-6.6,1.2
		c-3.3,0-5.9-0.9-7.8-2.8c-1.9-1.9-2.9-4.6-2.9-8.1c0-3.7,1.3-6.4,3.8-8.1c2.6-1.7,6.4-2.7,11.6-2.9l6-0.2v-1.5
		c0-3.5-1.8-5.2-5.4-5.2c-2.8,0-6,0.8-9.7,2.5l-3.1-6.4c4-2.1,8.4-3.1,13.2-3.1c4.6,0,8.2,1,10.7,3c2.5,2,3.7,5.1,3.7,9.2v23H225.9z
		"/>
</g>
<polygon class="st0" points="265.7,761.8 238.4,761.8 238.4,756.2 254.4,734.4 239.4,734.4 239.4,727.2 265.1,727.2 265.1,733.4 
	249.6,754.6 265.7,754.6 "/>
<g>
	<path class="st0" d="M281.4,761.8H272v-34.5h9.4V761.8z M271.6,718.3c0-3.1,1.7-4.6,5.1-4.6c3.4,0,5.1,1.5,5.1,4.6
		c0,1.5-0.4,2.6-1.3,3.4c-0.9,0.8-2.1,1.2-3.8,1.2C273.3,722.9,271.6,721.4,271.6,718.3"/>
	<path class="st0" d="M298.3,744.4c0,3.4,0.6,6,1.7,7.8c1.1,1.8,3,2.6,5.5,2.6c2.5,0,4.3-0.9,5.4-2.6c1.1-1.7,1.7-4.3,1.7-7.8
		c0-3.4-0.6-6-1.7-7.7c-1.1-1.7-2.9-2.6-5.5-2.6c-2.5,0-4.3,0.8-5.4,2.5C298.9,738.4,298.3,741,298.3,744.4 M322.2,744.4
		c0,5.6-1.5,10-4.4,13.2c-3,3.2-7.1,4.8-12.4,4.8c-3.3,0-6.2-0.7-8.8-2.2c-2.5-1.5-4.5-3.5-5.8-6.3c-1.4-2.7-2-5.9-2-9.5
		c0-5.6,1.5-10,4.4-13.2c2.9-3.1,7.1-4.7,12.4-4.7c3.3,0,6.2,0.7,8.8,2.2c2.5,1.4,4.5,3.5,5.8,6.2
		C321.5,737.7,322.2,740.8,322.2,744.4"/>
	<path class="st0" d="M361.4,761.8H352v-20.2c0-2.5-0.4-4.4-1.3-5.6c-0.9-1.2-2.3-1.9-4.2-1.9c-2.6,0-4.5,0.9-5.7,2.6
		c-1.2,1.8-1.8,4.7-1.8,8.8v16.2h-9.4v-34.5h7.2l1.3,4.4h0.5c1-1.7,2.5-2.9,4.3-3.8c1.8-0.9,3.9-1.3,6.3-1.3c4,0,7.1,1.1,9.1,3.3
		c2.1,2.2,3.1,5.3,3.1,9.4V761.8z"/>
	<path class="st0" d="M384.9,733.3c-2,0-3.6,0.6-4.7,1.9c-1.1,1.3-1.8,3.1-1.9,5.4h13.2c-0.1-2.3-0.7-4.1-1.8-5.4
		C388.5,733.9,386.9,733.3,384.9,733.3 M386.2,762.4c-5.6,0-9.9-1.5-13-4.6c-3.1-3.1-4.7-7.4-4.7-13c0-5.8,1.4-10.3,4.3-13.4
		c2.9-3.2,6.9-4.7,12-4.7c4.9,0,8.7,1.4,11.4,4.2c2.7,2.8,4.1,6.6,4.1,11.5v4.6H378c0.1,2.7,0.9,4.8,2.4,6.3
		c1.5,1.5,3.6,2.3,6.2,2.3c2.1,0,4-0.2,5.9-0.7c1.9-0.4,3.8-1.1,5.8-2.1v7.3c-1.6,0.8-3.4,1.4-5.3,1.8
		C391.2,762.2,388.9,762.4,386.2,762.4"/>
	<path class="st0" d="M433.7,737.9h3.2c3,0,5.1-0.6,6.6-1.7c1.5-1.2,2.2-2.9,2.2-5.1c0-2.2-0.6-3.9-1.8-5c-1.2-1.1-3.1-1.6-5.8-1.6
		h-4.4V737.9z M455.3,730.7c0,4.9-1.5,8.6-4.6,11.1c-3,2.6-7.4,3.9-13,3.9h-4.1v16.1h-9.6v-45.2h14.4c5.5,0,9.6,1.2,12.5,3.5
		C453.9,722.5,455.3,726,455.3,730.7"/>
	<path class="st0" d="M470.1,744.4c0,3.4,0.6,6,1.7,7.8c1.1,1.8,3,2.6,5.5,2.6c2.5,0,4.3-0.9,5.4-2.6c1.1-1.7,1.7-4.3,1.7-7.8
		c0-3.4-0.6-6-1.7-7.7c-1.1-1.7-2.9-2.6-5.5-2.6c-2.5,0-4.3,0.8-5.4,2.5C470.7,738.4,470.1,741,470.1,744.4 M494,744.4
		c0,5.6-1.5,10-4.4,13.2c-3,3.2-7.1,4.8-12.4,4.8c-3.3,0-6.2-0.7-8.8-2.2c-2.5-1.5-4.5-3.5-5.8-6.3c-1.4-2.7-2-5.9-2-9.5
		c0-5.6,1.5-10,4.4-13.2c2.9-3.1,7.1-4.7,12.4-4.7c3.3,0,6.2,0.7,8.8,2.2c2.5,1.4,4.5,3.5,5.8,6.2C493.3,737.7,494,740.8,494,744.4"
		/>
</g>
<rect x="501.3" y="713.7" class="st0" width="9.4" height="48.1"/>
<g>
	<path class="st0" d="M529.5,761.8h-9.4v-34.5h9.4V761.8z M519.7,718.3c0-3.1,1.7-4.6,5.1-4.6c3.4,0,5.1,1.5,5.1,4.6
		c0,1.5-0.4,2.6-1.3,3.4c-0.9,0.8-2.1,1.2-3.8,1.2C521.4,722.9,519.7,721.4,519.7,718.3"/>
	<path class="st0" d="M552.9,762.4c-10.8,0-16.1-5.9-16.1-17.7c0-5.9,1.5-10.4,4.4-13.5c2.9-3.1,7.1-4.6,12.6-4.6
		c4,0,7.6,0.8,10.8,2.4l-2.8,7.3c-1.5-0.6-2.9-1.1-4.1-1.5c-1.3-0.4-2.6-0.6-3.8-0.6c-4.9,0-7.4,3.5-7.4,10.4
		c0,6.8,2.5,10.1,7.4,10.1c1.8,0,3.5-0.2,5-0.7c1.5-0.5,3.1-1.2,4.6-2.3v8.1c-1.5,1-3.1,1.6-4.6,2
		C557.2,762.2,555.3,762.4,552.9,762.4"/>
</g>
<rect x="570.9" y="713.7" class="st0" width="9.4" height="48.1"/>
<g>
	<path class="st0" d="M599.1,761.8h-9.4v-34.5h9.4V761.8z M589.3,718.3c0-3.1,1.7-4.6,5.1-4.6c3.4,0,5.1,1.5,5.1,4.6
		c0,1.5-0.4,2.6-1.3,3.4c-0.9,0.8-2.1,1.2-3.8,1.2C591,722.9,589.3,721.4,589.3,718.3"/>
	<path class="st0" d="M640.4,761.8H631v-20.2c0-2.5-0.4-4.4-1.3-5.6c-0.9-1.2-2.3-1.9-4.2-1.9c-2.6,0-4.5,0.9-5.7,2.6
		c-1.2,1.8-1.8,4.7-1.8,8.8v16.2h-9.4v-34.5h7.2l1.3,4.4h0.5c1-1.7,2.5-2.9,4.3-3.8c1.8-0.9,3.9-1.3,6.3-1.3c4,0,7.1,1.1,9.1,3.3
		c2.1,2.2,3.1,5.3,3.1,9.4V761.8z"/>
	<path class="st0" d="M659,761.8h-9.4v-34.5h9.4V761.8z M649.2,718.3c0-3.1,1.7-4.6,5.1-4.6c3.4,0,5.1,1.5,5.1,4.6
		c0,1.5-0.4,2.6-1.3,3.4c-0.9,0.8-2.1,1.2-3.8,1.2C650.9,722.9,649.2,721.4,649.2,718.3"/>
	<path class="st0" d="M682.4,762.4c-10.8,0-16.1-5.9-16.1-17.7c0-5.9,1.5-10.4,4.4-13.5c2.9-3.1,7.1-4.6,12.6-4.6
		c4,0,7.6,0.8,10.7,2.4l-2.8,7.3c-1.5-0.6-2.9-1.1-4.1-1.5c-1.3-0.4-2.6-0.6-3.8-0.6c-4.9,0-7.4,3.5-7.4,10.4
		c0,6.8,2.5,10.1,7.4,10.1c1.8,0,3.5-0.2,5-0.7c1.5-0.5,3.1-1.2,4.6-2.3v8.1c-1.5,1-3.1,1.6-4.6,2
		C686.7,762.2,684.8,762.4,682.4,762.4"/>
	<path class="st0" d="M707.9,744.4c0,3.4,0.6,6,1.7,7.8c1.1,1.8,3,2.6,5.5,2.6c2.5,0,4.3-0.9,5.4-2.6c1.1-1.7,1.7-4.3,1.7-7.8
		c0-3.4-0.6-6-1.7-7.7c-1.1-1.7-2.9-2.6-5.5-2.6c-2.5,0-4.3,0.8-5.4,2.5C708.5,738.4,707.9,741,707.9,744.4 M731.8,744.4
		c0,5.6-1.5,10-4.4,13.2c-3,3.2-7.1,4.8-12.4,4.8c-3.3,0-6.2-0.7-8.8-2.2c-2.5-1.5-4.5-3.5-5.8-6.3c-1.4-2.7-2-5.9-2-9.5
		c0-5.6,1.5-10,4.4-13.2c2.9-3.1,7.1-4.7,12.4-4.7c3.3,0,6.2,0.7,8.8,2.2c2.5,1.4,4.5,3.5,5.8,6.2
		C731.1,737.7,731.8,740.8,731.8,744.4"/>
	<path class="st0" d="M792.5,716.6v29.2c0,3.3-0.7,6.3-2.2,8.8c-1.5,2.5-3.7,4.4-6.5,5.8c-2.8,1.3-6.2,2-10,2
		c-5.8,0-10.3-1.5-13.5-4.5c-3.2-3-4.8-7-4.8-12.2v-29.1h9.6v27.6c0,3.5,0.7,6,2.1,7.7c1.4,1.6,3.7,2.4,6.9,2.4
		c3.1,0,5.4-0.8,6.8-2.5c1.4-1.6,2.1-4.2,2.1-7.7v-27.6H792.5z"/>
	<path class="st0" d="M834.2,761.8h-9.4v-20.2c0-2.5-0.4-4.4-1.3-5.6c-0.9-1.2-2.3-1.9-4.2-1.9c-2.6,0-4.5,0.9-5.7,2.6
		c-1.2,1.8-1.8,4.7-1.8,8.8v16.2h-9.4v-34.5h7.2l1.3,4.4h0.5c1-1.7,2.5-2.9,4.3-3.8c1.8-0.9,3.9-1.3,6.3-1.3c4,0,7.1,1.1,9.1,3.3
		c2.1,2.2,3.1,5.3,3.1,9.4V761.8z"/>
	<path class="st0" d="M852.8,761.8h-9.4v-34.5h9.4V761.8z M843,718.3c0-3.1,1.7-4.6,5.1-4.6c3.4,0,5.1,1.5,5.1,4.6
		c0,1.5-0.4,2.6-1.3,3.4c-0.9,0.8-2.1,1.2-3.8,1.2C844.7,722.9,843,721.4,843,718.3"/>
	<path class="st0" d="M870.4,761.8l-13.2-34.5h9.9l6.7,19.7c0.7,2.5,1.2,4.9,1.4,7.1h0.2c0.1-2,0.6-4.3,1.4-7.1l6.6-19.7h9.9
		l-13.2,34.5H870.4z"/>
	<path class="st0" d="M912,733.3c-2,0-3.6,0.6-4.7,1.9c-1.1,1.3-1.8,3.1-1.9,5.4h13.2c0-2.3-0.7-4.1-1.8-5.4
		C915.6,733.9,914,733.3,912,733.3 M913.3,762.4c-5.6,0-9.9-1.5-13-4.6c-3.1-3.1-4.7-7.4-4.7-13c0-5.8,1.4-10.3,4.3-13.4
		c2.9-3.2,6.9-4.7,12-4.7c4.9,0,8.7,1.4,11.4,4.2c2.7,2.8,4.1,6.6,4.1,11.5v4.6h-22.3c0.1,2.7,0.9,4.8,2.4,6.3
		c1.5,1.5,3.6,2.3,6.2,2.3c2.1,0,4-0.2,5.9-0.7c1.9-0.4,3.8-1.1,5.8-2.1v7.3c-1.6,0.8-3.4,1.4-5.3,1.8
		C918.3,762.2,916,762.4,913.3,762.4"/>
	<path class="st0" d="M953.8,726.6c1.3,0,2.3,0.1,3.2,0.3l-0.7,8.8c-0.8-0.2-1.7-0.3-2.8-0.3c-3,0-5.3,0.8-7,2.3
		c-1.7,1.5-2.5,3.7-2.5,6.5v17.6h-9.4v-34.5h7.1l1.4,5.8h0.5c1.1-1.9,2.5-3.5,4.3-4.7C949.7,727.2,951.7,726.6,953.8,726.6"/>
	<path class="st0" d="M986.9,751.5c0,3.5-1.2,6.2-3.7,8.1c-2.5,1.9-6.1,2.8-11,2.8c-2.5,0-4.6-0.2-6.4-0.5c-1.8-0.3-3.4-0.8-5-1.5
		v-7.8c1.8,0.8,3.7,1.5,5.9,2.1c2.2,0.5,4.1,0.8,5.8,0.8c3.4,0,5.1-1,5.1-3c0-0.7-0.2-1.3-0.7-1.8c-0.4-0.5-1.2-1-2.3-1.6
		c-1.1-0.6-2.6-1.3-4.5-2.1c-2.7-1.1-4.6-2.1-5.8-3.1c-1.3-0.9-2.2-2-2.7-3.3c-0.6-1.2-0.8-2.7-0.8-4.5c0-3.1,1.2-5.4,3.6-7.1
		c2.4-1.7,5.7-2.5,10.1-2.5c4.2,0,8.2,0.9,12.1,2.7l-2.8,6.8c-1.7-0.7-3.3-1.3-4.9-1.8c-1.5-0.5-3-0.7-4.6-0.7
		c-2.8,0-4.2,0.8-4.2,2.3c0,0.8,0.4,1.6,1.3,2.2c0.9,0.6,2.9,1.5,5.9,2.7c2.7,1.1,4.7,2.1,5.9,3.1c1.3,0.9,2.2,2,2.8,3.3
		C986.6,748.3,986.9,749.8,986.9,751.5"/>
	<path class="st0" d="M1003.2,761.8h-9.4v-34.5h9.4V761.8z M993.3,718.3c0-3.1,1.7-4.6,5.1-4.6c3.4,0,5.1,1.5,5.1,4.6
		c0,1.5-0.4,2.6-1.3,3.4c-0.9,0.8-2.1,1.2-3.8,1.2C995,722.9,993.3,721.4,993.3,718.3"/>
	<path class="st0" d="M1027.1,754.9c1.6,0,3.6-0.4,5.9-1.1v7c-2.4,1.1-5.2,1.6-8.7,1.6c-3.8,0-6.5-1-8.2-2.9
		c-1.7-1.9-2.6-4.8-2.6-8.6v-16.7h-4.5v-4l5.2-3.1l2.7-7.3h6v7.4h9.7v7.1h-9.7V751c0,1.3,0.4,2.3,1.1,3
		C1024.9,754.6,1025.9,754.9,1027.1,754.9"/>
	<path class="st0" d="M1058.6,745.8l-3.6,0.1c-2.7,0.1-4.8,0.6-6.1,1.5c-1.3,0.9-2,2.3-2,4.1c0,2.7,1.5,4,4.6,4
		c2.2,0,3.9-0.6,5.2-1.9c1.3-1.3,2-2.9,2-5V745.8z M1061.4,761.8l-1.8-4.7h-0.2c-1.6,2-3.2,3.4-4.9,4.2c-1.7,0.8-3.9,1.2-6.6,1.2
		c-3.3,0-5.9-0.9-7.8-2.8c-1.9-1.9-2.8-4.6-2.8-8.1c0-3.7,1.3-6.4,3.8-8.1c2.6-1.7,6.4-2.7,11.6-2.9l6-0.2v-1.5
		c0-3.5-1.8-5.2-5.4-5.2c-2.8,0-6,0.8-9.7,2.5l-3.1-6.4c4-2.1,8.4-3.1,13.2-3.1c4.6,0,8.2,1,10.7,3c2.5,2,3.7,5.1,3.7,9.2v23H1061.4
		z"/>
	<path class="st0" d="M1096.5,726.6c1.3,0,2.3,0.1,3.2,0.3l-0.7,8.8c-0.8-0.2-1.7-0.3-2.8-0.3c-3,0-5.3,0.8-7,2.3
		c-1.7,1.5-2.5,3.7-2.5,6.5v17.6h-9.4v-34.5h7.1l1.4,5.8h0.5c1.1-1.9,2.5-3.5,4.3-4.7C1092.4,727.2,1094.3,726.6,1096.5,726.6"/>
	<path class="st0" d="M1114.8,761.8h-9.4v-34.5h9.4V761.8z M1105,718.3c0-3.1,1.7-4.6,5.1-4.6c3.4,0,5.1,1.5,5.1,4.6
		c0,1.5-0.4,2.6-1.3,3.4c-0.9,0.8-2.1,1.2-3.8,1.2C1106.7,722.9,1105,721.4,1105,718.3"/>
	<path class="st0" d="M1131.7,744.4c0,3.4,0.6,6,1.7,7.8c1.1,1.8,2.9,2.6,5.5,2.6c2.5,0,4.3-0.9,5.4-2.6c1.1-1.7,1.7-4.3,1.7-7.8
		c0-3.4-0.6-6-1.7-7.7c-1.1-1.7-2.9-2.6-5.5-2.6c-2.5,0-4.3,0.8-5.4,2.5C1132.3,738.4,1131.7,741,1131.7,744.4 M1155.6,744.4
		c0,5.6-1.5,10-4.4,13.2c-3,3.2-7.1,4.8-12.4,4.8c-3.3,0-6.2-0.7-8.8-2.2c-2.5-1.5-4.5-3.5-5.8-6.3c-1.4-2.7-2-5.9-2-9.5
		c0-5.6,1.5-10,4.4-13.2c2.9-3.1,7.1-4.7,12.4-4.7c3.3,0,6.2,0.7,8.8,2.2c2.5,1.4,4.5,3.5,5.8,6.2
		C1154.9,737.7,1155.6,740.8,1155.6,744.4"/>
	<path class="st0" d="M1201.7,743c-3-9.7-4.7-15.2-5.1-16.5c-0.4-1.3-0.7-2.3-0.8-3c-0.7,2.6-2.6,9.2-5.8,19.6H1201.7z
		 M1207.2,761.8l-3.3-10.8h-16.5l-3.3,10.8h-10.3l15.9-45.3h11.7l16,45.3H1207.2z"/>
	<path class="st0" d="M1228.8,738.5c0,1.9,0.4,3.4,1.3,4.4c0.8,1.1,2.2,1.6,3.9,1.6c1.8,0,3.1-0.5,3.9-1.6c0.8-1.1,1.2-2.6,1.2-4.4
		c0-4.2-1.7-6.2-5.1-6.2C1230.5,732.3,1228.8,734.4,1228.8,738.5 M1225.4,766.7c0,1.3,0.6,2.3,1.9,3.1c1.3,0.7,3,1.1,5.2,1.1
		c3.4,0,6-0.5,7.9-1.4c1.9-0.9,2.9-2.2,2.9-3.8c0-1.3-0.6-2.2-1.7-2.7c-1.1-0.5-2.9-0.7-5.3-0.7h-4.9c-1.7,0-3.2,0.4-4.3,1.2
		C1226,764.2,1225.4,765.3,1225.4,766.7 M1252,727.2v4.8l-5.4,1.4c1,1.5,1.5,3.3,1.5,5.2c0,3.7-1.3,6.6-3.9,8.7
		c-2.6,2.1-6.2,3.1-10.8,3.1l-1.7-0.1l-1.4-0.2c-1,0.7-1.5,1.6-1.5,2.5c0,1.4,1.7,2,5.2,2h5.9c3.8,0,6.7,0.8,8.7,2.4
		c2,1.6,3,4,3,7.2c0,4-1.7,7.2-5,9.4c-3.4,2.2-8.2,3.3-14.5,3.3c-4.8,0-8.5-0.8-11-2.5c-2.6-1.7-3.8-4-3.8-7.1c0-2.1,0.7-3.8,2-5.2
		c1.3-1.4,3.2-2.4,5.7-3c-1-0.4-1.8-1.1-2.5-2c-0.7-0.9-1.1-1.9-1.1-3c0-1.3,0.4-2.4,1.1-3.3c0.8-0.9,1.9-1.7,3.3-2.6
		c-1.8-0.8-3.2-2-4.3-3.8c-1.1-1.7-1.6-3.8-1.6-6.1c0-3.8,1.2-6.7,3.7-8.7c2.5-2.1,6-3.1,10.5-3.1c1,0,2.1,0.1,3.4,0.3
		c1.3,0.2,2.2,0.3,2.6,0.4H1252z"/>
	<path class="st0" d="M1264.7,744.4c0,3.4,0.6,6,1.7,7.8c1.1,1.8,3,2.6,5.5,2.6c2.5,0,4.3-0.9,5.4-2.6c1.1-1.7,1.7-4.3,1.7-7.8
		c0-3.4-0.6-6-1.7-7.7c-1.1-1.7-2.9-2.6-5.5-2.6c-2.5,0-4.3,0.8-5.4,2.5C1265.3,738.4,1264.7,741,1264.7,744.4 M1288.6,744.4
		c0,5.6-1.5,10-4.4,13.2c-3,3.2-7.1,4.8-12.4,4.8c-3.3,0-6.2-0.7-8.8-2.2c-2.5-1.5-4.5-3.5-5.8-6.3c-1.4-2.7-2-5.9-2-9.5
		c0-5.6,1.5-10,4.4-13.2c2.9-3.1,7.1-4.7,12.4-4.7c3.3,0,6.2,0.7,8.8,2.2c2.5,1.4,4.5,3.5,5.8,6.2
		C1287.9,737.7,1288.6,740.8,1288.6,744.4"/>
	<path class="st0" d="M1320,751.5c0,3.5-1.2,6.2-3.7,8.1c-2.5,1.9-6.1,2.8-11,2.8c-2.5,0-4.6-0.2-6.4-0.5c-1.8-0.3-3.4-0.8-5-1.5
		v-7.8c1.8,0.8,3.7,1.5,5.9,2.1c2.2,0.5,4.1,0.8,5.8,0.8c3.4,0,5.1-1,5.1-3c0-0.7-0.2-1.3-0.7-1.8c-0.4-0.5-1.2-1-2.3-1.6
		c-1.1-0.6-2.6-1.3-4.5-2.1c-2.7-1.1-4.6-2.1-5.8-3.1c-1.3-0.9-2.2-2-2.7-3.3c-0.6-1.2-0.9-2.7-0.9-4.5c0-3.1,1.2-5.4,3.6-7.1
		c2.4-1.7,5.7-2.5,10.1-2.5c4.2,0,8.2,0.9,12.1,2.7l-2.8,6.8c-1.7-0.7-3.3-1.3-4.9-1.8c-1.5-0.5-3-0.7-4.6-0.7
		c-2.8,0-4.2,0.8-4.2,2.3c0,0.8,0.4,1.6,1.3,2.2c0.9,0.6,2.9,1.5,5.9,2.7c2.7,1.1,4.7,2.1,5.9,3.1c1.3,0.9,2.2,2,2.8,3.3
		C1319.7,748.3,1320,749.8,1320,751.5"/>
	<path class="st0" d="M1341.4,754.9c1.6,0,3.6-0.4,5.9-1.1v7c-2.3,1.1-5.2,1.6-8.6,1.6c-3.8,0-6.5-1-8.2-2.9
		c-1.7-1.9-2.6-4.8-2.6-8.6v-16.7h-4.5v-4l5.2-3.1l2.7-7.3h6v7.4h9.7v7.1h-9.7V751c0,1.3,0.4,2.3,1.1,3
		C1339.1,754.6,1340.1,754.9,1341.4,754.9"/>
	<path class="st0" d="M1363.2,761.8h-9.4v-34.5h9.4V761.8z M1353.4,718.3c0-3.1,1.7-4.6,5.1-4.6c3.4,0,5.1,1.5,5.1,4.6
		c0,1.5-0.4,2.6-1.3,3.4c-0.9,0.8-2.1,1.2-3.8,1.2C1355.1,722.9,1353.4,721.4,1353.4,718.3"/>
	<path class="st0" d="M1404.5,761.8h-9.4v-20.2c0-2.5-0.4-4.4-1.3-5.6c-0.9-1.2-2.3-1.9-4.2-1.9c-2.6,0-4.5,0.9-5.7,2.6
		c-1.2,1.8-1.8,4.7-1.8,8.8v16.2h-9.4v-34.5h7.2l1.3,4.4h0.5c1.1-1.7,2.5-2.9,4.3-3.8c1.8-0.9,3.9-1.3,6.3-1.3c4,0,7.1,1.1,9.1,3.3
		c2.1,2.2,3.1,5.3,3.1,9.4V761.8z"/>
	<path class="st0" d="M1421.2,744.4c0,3.4,0.6,6,1.7,7.8c1.1,1.8,2.9,2.6,5.5,2.6c2.5,0,4.3-0.9,5.4-2.6c1.1-1.7,1.7-4.3,1.7-7.8
		c0-3.4-0.6-6-1.7-7.7c-1.1-1.7-2.9-2.6-5.5-2.6c-2.5,0-4.3,0.8-5.4,2.5C1421.7,738.4,1421.2,741,1421.2,744.4 M1445,744.4
		c0,5.6-1.5,10-4.4,13.2c-3,3.2-7.1,4.8-12.4,4.8c-3.3,0-6.2-0.7-8.8-2.2c-2.5-1.5-4.5-3.5-5.8-6.3c-1.4-2.7-2-5.9-2-9.5
		c0-5.6,1.5-10,4.4-13.2c2.9-3.1,7.1-4.7,12.4-4.7c3.3,0,6.2,0.7,8.8,2.2c2.5,1.4,4.5,3.5,5.8,6.2
		C1444.4,737.7,1445,740.8,1445,744.4"/>
	<path class="st0" d="M1486.1,736.4h17.9v23.4c-2.9,0.9-5.6,1.6-8.2,2c-2.6,0.4-5.2,0.6-7.9,0.6c-6.8,0-12-2-15.6-6
		c-3.6-4-5.4-9.8-5.4-17.3c0-7.3,2.1-13,6.3-17.1c4.2-4.1,9.9-6.1,17.3-6.1c4.6,0,9.1,0.9,13.4,2.8l-3.2,7.7
		c-3.3-1.6-6.7-2.5-10.3-2.5c-4.1,0-7.5,1.4-9.9,4.2c-2.5,2.8-3.7,6.5-3.7,11.2c0,4.9,1,8.6,3,11.2c2,2.6,4.9,3.9,8.8,3.9
		c2,0,4-0.2,6.1-0.6v-9.4h-8.6V736.4z"/>
	<path class="st0" d="M1527.9,733.3c-2,0-3.6,0.6-4.7,1.9c-1.1,1.3-1.8,3.1-1.9,5.4h13.2c0-2.3-0.7-4.1-1.8-5.4
		C1531.5,733.9,1529.9,733.3,1527.9,733.3 M1529.2,762.4c-5.6,0-9.9-1.5-13-4.6c-3.1-3.1-4.7-7.4-4.7-13c0-5.8,1.4-10.3,4.3-13.4
		c2.9-3.2,6.9-4.7,12-4.7c4.9,0,8.7,1.4,11.4,4.2c2.7,2.8,4.1,6.6,4.1,11.5v4.6H1521c0.1,2.7,0.9,4.8,2.4,6.3
		c1.5,1.5,3.6,2.3,6.2,2.3c2.1,0,4-0.2,5.9-0.7c1.9-0.4,3.8-1.1,5.8-2.1v7.3c-1.6,0.8-3.4,1.4-5.3,1.8
		C1534.2,762.2,1531.9,762.4,1529.2,762.4"/>
	<path class="st0" d="M1581.4,761.8h-9.4v-20.2c0-2.5-0.4-4.4-1.3-5.6c-0.8-1.2-2.1-1.9-3.9-1.9c-2.4,0-4.2,0.9-5.2,2.7
		c-1.1,1.8-1.6,4.7-1.6,8.7v16.2h-9.4v-34.5h7.2l1.3,4.4h0.5c0.9-1.6,2.3-2.8,4-3.7c1.8-0.9,3.8-1.3,6-1.3c5.2,0,8.7,1.7,10.5,5.1
		h0.8c0.9-1.6,2.3-2.9,4.1-3.7c1.8-0.9,3.8-1.3,6.1-1.3c3.9,0,6.9,1,8.9,3c2,2,3,5.2,3,9.7v22.5h-9.5v-20.2c0-2.5-0.4-4.4-1.3-5.6
		c-0.8-1.2-2.1-1.9-3.9-1.9c-2.3,0-4,0.8-5.2,2.5c-1.1,1.6-1.7,4.3-1.7,7.9V761.8z"/>
	<path class="st0" d="M1626.4,733.3c-2,0-3.6,0.6-4.7,1.9c-1.1,1.3-1.8,3.1-1.9,5.4h13.2c0-2.3-0.7-4.1-1.8-5.4
		C1630,733.9,1628.4,733.3,1626.4,733.3 M1627.7,762.4c-5.6,0-9.9-1.5-13-4.6c-3.1-3.1-4.7-7.4-4.7-13c0-5.8,1.4-10.3,4.3-13.4
		c2.9-3.2,6.9-4.7,12-4.7c4.9,0,8.7,1.4,11.4,4.2c2.7,2.8,4.1,6.6,4.1,11.5v4.6h-22.3c0.1,2.7,0.9,4.8,2.4,6.3
		c1.5,1.5,3.6,2.3,6.2,2.3c2.1,0,4-0.2,5.9-0.7c1.9-0.4,3.8-1.1,5.8-2.1v7.3c-1.6,0.8-3.4,1.4-5.3,1.8
		C1632.7,762.2,1630.4,762.4,1627.7,762.4"/>
</g>
<rect x="1648.9" y="713.7" class="st0" width="9.4" height="48.1"/>
<rect x="1667.7" y="713.7" class="st0" width="9.4" height="48.1"/>
<g>
	<path class="st0" d="M1696,761.8h-9.4v-34.5h9.4V761.8z M1686.1,718.3c0-3.1,1.7-4.6,5.1-4.6c3.4,0,5.1,1.5,5.1,4.6
		c0,1.5-0.4,2.6-1.3,3.4c-0.9,0.8-2.1,1.2-3.8,1.2C1687.8,722.9,1686.1,721.4,1686.1,718.3"/>
</g>
<rect x="1722" y="716.6" class="st0" width="9.6" height="45.2"/>
<g>
	<path class="st0" d="M1752,736.7h3.1c3,0,5.3-0.5,6.7-1.5c1.4-1,2.2-2.6,2.2-4.8c0-2.1-0.7-3.7-2.2-4.6c-1.5-0.9-3.8-1.4-6.8-1.4
		h-2.9V736.7z M1752,744.4v17.3h-9.6v-45.2h13.2c6.1,0,10.7,1.1,13.6,3.4c2.9,2.2,4.4,5.6,4.4,10.2c0,2.7-0.7,5-2.2,7.1
		c-1.5,2.1-3.5,3.7-6.2,4.9c6.8,10.2,11.2,16.7,13.3,19.7h-10.6l-10.8-17.3H1752z"/>
	<path class="st0" d="M1802.9,723.9c-3.6,0-6.4,1.4-8.4,4.1c-2,2.7-3,6.5-3,11.3c0,10.1,3.8,15.1,11.3,15.1c3.2,0,7-0.8,11.5-2.4v8
		c-3.7,1.5-7.9,2.3-12.4,2.3c-6.6,0-11.6-2-15.1-6c-3.5-4-5.2-9.7-5.2-17.2c0-4.7,0.9-8.8,2.6-12.3c1.7-3.5,4.2-6.2,7.4-8.1
		c3.2-1.9,6.9-2.8,11.3-2.8c4.4,0,8.8,1.1,13.2,3.2l-3.1,7.8c-1.7-0.8-3.4-1.5-5.1-2.1C1806.2,724.2,1804.6,723.9,1802.9,723.9"/>
	<path class="st0" d="M1842.7,723.9c-3.6,0-6.4,1.4-8.4,4.1c-2,2.7-3,6.5-3,11.3c0,10.1,3.8,15.1,11.3,15.1c3.2,0,7-0.8,11.5-2.4v8
		c-3.7,1.5-7.8,2.3-12.4,2.3c-6.6,0-11.6-2-15.1-6c-3.5-4-5.2-9.7-5.2-17.2c0-4.7,0.9-8.8,2.6-12.3c1.7-3.5,4.2-6.2,7.4-8.1
		c3.2-1.9,6.9-2.8,11.3-2.8c4.4,0,8.8,1.1,13.2,3.2l-3.1,7.8c-1.7-0.8-3.4-1.5-5.1-2.1C1846,724.2,1844.4,723.9,1842.7,723.9"/>
	<path class="st0" d="M1890,749.2c0,4.1-1.5,7.3-4.4,9.6c-2.9,2.4-7,3.5-12.2,3.5c-4.8,0-9.1-0.9-12.8-2.7v-8.9
		c3,1.4,5.6,2.3,7.7,2.9c2.1,0.6,4,0.8,5.8,0.8c2.1,0,3.7-0.4,4.8-1.2c1.1-0.8,1.7-2,1.7-3.6c0-0.9-0.2-1.7-0.7-2.4
		c-0.5-0.7-1.2-1.4-2.2-2c-1-0.6-2.9-1.7-5.8-3.1c-2.8-1.3-4.8-2.5-6.2-3.7c-1.4-1.2-2.5-2.6-3.3-4.2c-0.8-1.6-1.2-3.4-1.2-5.6
		c0-4,1.4-7.1,4.1-9.4c2.7-2.3,6.4-3.4,11.2-3.4c2.3,0,4.6,0.3,6.7,0.8c2.1,0.6,4.4,1.3,6.7,2.3l-3.1,7.4c-2.4-1-4.4-1.7-6-2.1
		c-1.6-0.4-3.1-0.6-4.6-0.6c-1.8,0-3.2,0.4-4.2,1.3c-1,0.8-1.4,2-1.4,3.3c0,0.8,0.2,1.6,0.6,2.2c0.4,0.6,1,1.2,1.9,1.8
		c0.9,0.6,2.9,1.6,6.1,3.2c4.2,2,7.1,4,8.7,6.1C1889.2,743.8,1890,746.3,1890,749.2"/>
	<path class="st0" d="M88,792.5v29.2c0,3.3-0.7,6.3-2.2,8.8c-1.5,2.5-3.7,4.4-6.5,5.8c-2.8,1.3-6.2,2-10,2c-5.8,0-10.3-1.5-13.5-4.5
		c-3.2-3-4.8-7-4.8-12.2v-29.1h9.6v27.6c0,3.5,0.7,6,2.1,7.7c1.4,1.6,3.7,2.4,6.9,2.4c3.1,0,5.4-0.8,6.8-2.5
		c1.4-1.6,2.1-4.2,2.1-7.7v-27.6H88z"/>
	<path class="st0" d="M129.7,837.7h-9.4v-20.2c0-2.5-0.4-4.4-1.3-5.6c-0.9-1.2-2.3-1.9-4.2-1.9c-2.6,0-4.5,0.9-5.7,2.6
		c-1.2,1.8-1.8,4.7-1.8,8.8v16.2h-9.4v-34.5h7.2l1.3,4.4h0.5c1-1.7,2.5-2.9,4.3-3.8c1.8-0.9,3.9-1.3,6.3-1.3c4,0,7.1,1.1,9.1,3.3
		c2.1,2.2,3.1,5.3,3.1,9.4V837.7z"/>
	<path class="st0" d="M148.3,837.7h-9.4v-34.5h9.4V837.7z M138.5,794.2c0-3.1,1.7-4.6,5.1-4.6c3.4,0,5.1,1.5,5.1,4.6
		c0,1.5-0.4,2.6-1.3,3.4c-0.9,0.8-2.1,1.2-3.8,1.2C140.2,798.9,138.5,797.3,138.5,794.2"/>
	<path class="st0" d="M165.9,837.7l-13.2-34.5h9.9l6.7,19.7c0.7,2.5,1.2,4.9,1.4,7.1h0.2c0.1-2,0.6-4.3,1.4-7.1l6.6-19.7h9.9
		l-13.2,34.5H165.9z"/>
	<path class="st0" d="M207.5,809.2c-2,0-3.6,0.6-4.7,1.9c-1.1,1.3-1.8,3.1-1.9,5.4H214c0-2.3-0.7-4.1-1.8-5.4
		C211,809.8,209.4,809.2,207.5,809.2 M208.8,838.3c-5.6,0-9.9-1.5-13-4.6c-3.1-3.1-4.7-7.4-4.7-13c0-5.8,1.4-10.3,4.3-13.4
		c2.9-3.2,6.9-4.7,12-4.7c4.9,0,8.7,1.4,11.4,4.2c2.7,2.8,4.1,6.6,4.1,11.5v4.6h-22.3c0.1,2.7,0.9,4.8,2.4,6.3
		c1.5,1.5,3.6,2.3,6.2,2.3c2.1,0,4-0.2,5.9-0.7c1.9-0.4,3.8-1.1,5.8-2.1v7.3c-1.6,0.8-3.4,1.4-5.3,1.8
		C213.8,838.1,211.5,838.3,208.8,838.3"/>
	<path class="st0" d="M249.3,802.5c1.3,0,2.3,0.1,3.2,0.3l-0.7,8.8c-0.8-0.2-1.7-0.3-2.8-0.3c-3,0-5.4,0.8-7,2.3
		c-1.7,1.5-2.5,3.7-2.5,6.5v17.6H230v-34.5h7.1l1.4,5.8h0.5c1.1-1.9,2.5-3.5,4.3-4.7C245.2,803.1,247.2,802.5,249.3,802.5"/>
	<path class="st0" d="M282.3,827.4c0,3.5-1.2,6.2-3.7,8.1c-2.5,1.9-6.1,2.8-11,2.8c-2.5,0-4.7-0.2-6.4-0.5c-1.8-0.3-3.4-0.8-5-1.5
		v-7.8c1.8,0.8,3.7,1.5,5.9,2.1c2.2,0.5,4.1,0.8,5.8,0.8c3.4,0,5.1-1,5.1-3c0-0.7-0.2-1.3-0.7-1.8c-0.5-0.5-1.2-1-2.3-1.6
		c-1.1-0.6-2.6-1.3-4.4-2.1c-2.7-1.1-4.6-2.1-5.9-3.1c-1.2-0.9-2.2-2-2.7-3.3c-0.6-1.2-0.8-2.7-0.8-4.5c0-3.1,1.2-5.4,3.6-7.1
		c2.4-1.7,5.7-2.5,10.1-2.5c4.2,0,8.2,0.9,12.1,2.7l-2.8,6.8c-1.7-0.7-3.3-1.3-4.9-1.8c-1.5-0.5-3-0.7-4.6-0.7
		c-2.8,0-4.2,0.8-4.2,2.3c0,0.8,0.4,1.6,1.3,2.2c0.9,0.6,2.9,1.5,5.9,2.7c2.7,1.1,4.7,2.1,5.9,3.1c1.3,0.9,2.2,2,2.8,3.3
		C282,824.3,282.3,825.7,282.3,827.4"/>
	<path class="st0" d="M298.6,837.7h-9.4v-34.5h9.4V837.7z M288.8,794.2c0-3.1,1.7-4.6,5.1-4.6c3.4,0,5.1,1.5,5.1,4.6
		c0,1.5-0.4,2.6-1.3,3.4c-0.9,0.8-2.1,1.2-3.9,1.2C290.5,798.9,288.8,797.3,288.8,794.2"/>
	<path class="st0" d="M322.5,830.8c1.6,0,3.6-0.4,5.9-1.1v7c-2.4,1-5.2,1.6-8.7,1.6c-3.8,0-6.5-1-8.2-2.9c-1.7-1.9-2.6-4.8-2.6-8.6
		v-16.7h-4.5v-4l5.2-3.1l2.7-7.3h6v7.4h9.7v7.1h-9.7v16.7c0,1.3,0.4,2.3,1.1,3C320.3,830.5,321.3,830.8,322.5,830.8"/>
	<path class="st0" d="M354.1,821.7l-3.6,0.1c-2.7,0.1-4.8,0.6-6.1,1.5c-1.3,0.9-2,2.3-2,4.1c0,2.7,1.5,4,4.6,4
		c2.2,0,3.9-0.6,5.2-1.9c1.3-1.3,2-2.9,2-5V821.7z M349,799.4c-1.3-0.9-3.2-2.4-5.7-4.4c-2.5-2-4.5-3.7-5.9-5.1v-0.6H348
		c1.3,2.1,3.7,5.2,7.3,9.3v0.8H349z M356.9,837.7l-1.8-4.7h-0.2c-1.6,2-3.2,3.4-4.9,4.2c-1.7,0.8-3.9,1.2-6.6,1.2
		c-3.3,0-5.9-0.9-7.8-2.8c-1.9-1.9-2.9-4.6-2.9-8.1c0-3.7,1.3-6.4,3.8-8.1c2.6-1.7,6.4-2.7,11.6-2.9l6-0.2v-1.5
		c0-3.5-1.8-5.2-5.4-5.2c-2.8,0-6,0.8-9.7,2.5l-3.1-6.4c4-2.1,8.4-3.1,13.2-3.1c4.6,0,8.2,1,10.7,3c2.5,2,3.7,5.1,3.7,9.2v23H356.9z
		"/>
	<path class="st0" d="M408.5,799.9c-3.6,0-6.4,1.4-8.4,4.1c-2,2.7-3,6.5-3,11.3c0,10.1,3.8,15.1,11.3,15.1c3.2,0,7-0.8,11.5-2.4v8
		c-3.7,1.5-7.8,2.3-12.4,2.3c-6.6,0-11.6-2-15.1-6c-3.5-4-5.2-9.7-5.2-17.2c0-4.7,0.9-8.8,2.6-12.3c1.7-3.5,4.2-6.2,7.4-8.1
		c3.2-1.9,7-2.8,11.3-2.8c4.4,0,8.8,1.1,13.2,3.2l-3.1,7.8c-1.7-0.8-3.4-1.5-5.1-2.1C411.8,800.2,410.2,799.9,408.5,799.9"/>
	<path class="st0" d="M447.6,821.7l-3.6,0.1c-2.7,0.1-4.8,0.6-6.1,1.5c-1.3,0.9-2,2.3-2,4.1c0,2.7,1.5,4,4.6,4
		c2.2,0,3.9-0.6,5.2-1.9c1.3-1.3,2-2.9,2-5V821.7z M450.3,837.7l-1.8-4.7h-0.2c-1.6,2-3.2,3.4-4.9,4.2c-1.7,0.8-3.9,1.2-6.6,1.2
		c-3.3,0-5.9-0.9-7.8-2.8c-1.9-1.9-2.9-4.6-2.9-8.1c0-3.7,1.3-6.4,3.8-8.1c2.6-1.7,6.4-2.7,11.6-2.9l6-0.2v-1.5
		c0-3.5-1.8-5.2-5.4-5.2c-2.8,0-6,0.8-9.7,2.5l-3.1-6.4c4-2.1,8.4-3.1,13.2-3.1c4.6,0,8.2,1,10.7,3c2.5,2,3.7,5.1,3.7,9.2v23H450.3z
		"/>
	<path class="st0" d="M480.7,830.8c1.6,0,3.6-0.4,5.9-1.1v7c-2.4,1-5.2,1.6-8.7,1.6c-3.8,0-6.5-1-8.2-2.9c-1.7-1.9-2.6-4.8-2.6-8.6
		v-16.7h-4.5v-4l5.2-3.1l2.7-7.3h6v7.4h9.7v7.1h-9.7v16.7c0,1.3,0.4,2.3,1.1,3C478.4,830.5,479.4,830.8,480.7,830.8"/>
	<path class="st0" d="M507.6,830.8c1.6,0,3.6-0.4,5.9-1.1v7c-2.4,1-5.2,1.6-8.7,1.6c-3.8,0-6.5-1-8.2-2.9c-1.7-1.9-2.6-4.8-2.6-8.6
		v-16.7h-4.5v-4l5.2-3.1l2.7-7.3h6v7.4h9.7v7.1h-9.7v16.7c0,1.3,0.4,2.3,1.1,3C505.4,830.5,506.4,830.8,507.6,830.8"/>
	<path class="st0" d="M527.5,820.4c0,3.4,0.6,6,1.7,7.8c1.1,1.8,3,2.6,5.5,2.6c2.5,0,4.3-0.9,5.4-2.6c1.1-1.7,1.7-4.3,1.7-7.8
		c0-3.4-0.6-6-1.7-7.7c-1.1-1.7-2.9-2.6-5.5-2.6c-2.5,0-4.3,0.8-5.4,2.5C528.1,814.4,527.5,816.9,527.5,820.4 M551.4,820.4
		c0,5.6-1.5,10-4.4,13.2c-3,3.2-7.1,4.8-12.4,4.8c-3.3,0-6.2-0.7-8.8-2.2c-2.5-1.5-4.5-3.5-5.8-6.3c-1.4-2.7-2-5.9-2-9.5
		c0-5.6,1.5-10,4.4-13.2c2.9-3.1,7.1-4.7,12.4-4.7c3.3,0,6.2,0.7,8.8,2.2c2.5,1.4,4.5,3.5,5.8,6.2
		C550.7,813.6,551.4,816.7,551.4,820.4"/>
</g>
<rect x="558.7" y="789.6" class="st0" width="9.4" height="48.1"/>
<g>
	<path class="st0" d="M586.9,837.7h-9.4v-34.5h9.4V837.7z M577.1,794.2c0-3.1,1.7-4.6,5.1-4.6c3.4,0,5.1,1.5,5.1,4.6
		c0,1.5-0.4,2.6-1.3,3.4c-0.9,0.8-2.1,1.2-3.8,1.2C578.8,798.9,577.1,797.3,577.1,794.2"/>
	<path class="st0" d="M610.3,838.3c-10.8,0-16.1-5.9-16.1-17.7c0-5.9,1.5-10.4,4.4-13.5c2.9-3.1,7.1-4.6,12.6-4.6
		c4,0,7.6,0.8,10.8,2.4l-2.8,7.3c-1.5-0.6-2.9-1.1-4.1-1.5c-1.3-0.4-2.6-0.6-3.8-0.6c-4.9,0-7.4,3.5-7.4,10.4
		c0,6.8,2.5,10.1,7.4,10.1c1.8,0,3.5-0.2,5-0.7c1.5-0.5,3.1-1.2,4.6-2.3v8.1c-1.5,1-3.1,1.6-4.6,2
		C614.7,838.1,612.7,838.3,610.3,838.3"/>
	<path class="st0" d="M647.5,821.7l-3.6,0.1c-2.7,0.1-4.8,0.6-6.1,1.5c-1.3,0.9-2,2.3-2,4.1c0,2.7,1.5,4,4.6,4
		c2.2,0,3.9-0.6,5.2-1.9c1.3-1.3,2-2.9,2-5V821.7z M650.3,837.7l-1.8-4.7h-0.2c-1.6,2-3.2,3.4-4.9,4.2c-1.7,0.8-3.9,1.2-6.6,1.2
		c-3.3,0-5.9-0.9-7.8-2.8c-1.9-1.9-2.9-4.6-2.9-8.1c0-3.7,1.3-6.4,3.8-8.1c2.6-1.7,6.4-2.7,11.6-2.9l6-0.2v-1.5
		c0-3.5-1.8-5.2-5.4-5.2c-2.8,0-6,0.8-9.7,2.5l-3.1-6.4c4-2.1,8.4-3.1,13.2-3.1c4.6,0,8.2,1,10.7,3c2.5,2,3.7,5.1,3.7,9.2v23H650.3z
		"/>
	<path class="st0" d="M696.2,830.8c2.4,0,4.2-0.7,5.3-2.1c1.1-1.4,1.7-3.8,1.8-7.1v-1c0-3.7-0.6-6.4-1.7-8c-1.1-1.6-3-2.4-5.6-2.4
		c-2.1,0-3.7,0.9-4.9,2.7c-1.2,1.8-1.7,4.4-1.7,7.8c0,3.4,0.6,5.9,1.8,7.6C692.3,830,694,830.8,696.2,830.8 M692.9,838.3
		c-4.1,0-7.2-1.6-9.6-4.7c-2.3-3.2-3.5-7.5-3.5-13.1c0-5.7,1.2-10.1,3.5-13.2c2.4-3.2,5.6-4.7,9.7-4.7c4.3,0,7.7,1.7,9.9,5.1h0.3
		c-0.5-2.6-0.7-4.9-0.7-6.9v-11.1h9.5v48.1h-7.2l-1.8-4.5h-0.4C700.5,836.6,697.3,838.3,692.9,838.3"/>
	<path class="st0" d="M735.8,809.2c-2,0-3.6,0.6-4.7,1.9c-1.1,1.3-1.8,3.1-1.9,5.4h13.2c0-2.3-0.7-4.1-1.8-5.4
		C739.4,809.8,737.8,809.2,735.8,809.2 M737.1,838.3c-5.6,0-9.9-1.5-13-4.6c-3.1-3.1-4.7-7.4-4.7-13c0-5.8,1.4-10.3,4.3-13.4
		c2.9-3.2,6.9-4.7,12-4.7c4.9,0,8.7,1.4,11.4,4.2c2.7,2.8,4.1,6.6,4.1,11.5v4.6h-22.3c0.1,2.7,0.9,4.8,2.4,6.3
		c1.5,1.5,3.6,2.3,6.2,2.3c2.1,0,4-0.2,5.9-0.7c1.9-0.4,3.8-1.1,5.8-2.1v7.3c-1.6,0.8-3.4,1.4-5.3,1.8
		C742.1,838.1,739.8,838.3,737.1,838.3"/>
</g>
<rect x="758.4" y="789.6" class="st0" width="9.4" height="48.1"/>
<g>
	<path class="st0" d="M820.5,825.2c0,4.1-1.5,7.3-4.4,9.6c-2.9,2.4-7,3.5-12.2,3.5c-4.8,0-9.1-0.9-12.8-2.7v-8.9
		c3,1.4,5.6,2.3,7.7,2.9c2.1,0.6,4,0.8,5.8,0.8c2.1,0,3.7-0.4,4.8-1.2c1.1-0.8,1.7-2,1.7-3.6c0-0.9-0.2-1.7-0.7-2.4
		c-0.5-0.7-1.2-1.4-2.2-2c-1-0.6-2.9-1.7-5.8-3.1c-2.8-1.3-4.8-2.5-6.2-3.7c-1.4-1.2-2.5-2.6-3.3-4.2c-0.8-1.6-1.2-3.4-1.2-5.6
		c0-4,1.4-7.1,4.1-9.4c2.7-2.3,6.4-3.4,11.2-3.4c2.3,0,4.6,0.3,6.7,0.8c2.1,0.6,4.4,1.3,6.7,2.3l-3.1,7.4c-2.4-1-4.4-1.7-6-2.1
		c-1.6-0.4-3.1-0.6-4.6-0.6c-1.8,0-3.2,0.4-4.2,1.3c-1,0.9-1.4,2-1.4,3.3c0,0.9,0.2,1.6,0.6,2.2c0.4,0.6,1,1.2,1.9,1.8
		c0.9,0.6,2.9,1.6,6.1,3.2c4.2,2,7.1,4,8.7,6.1C819.7,819.7,820.5,822.2,820.5,825.2"/>
	<path class="st0" d="M846.6,821.7l-3.6,0.1c-2.7,0.1-4.8,0.6-6.1,1.5c-1.3,0.9-2,2.3-2,4.1c0,2.7,1.5,4,4.6,4
		c2.2,0,3.9-0.6,5.2-1.9c1.3-1.3,2-2.9,2-5V821.7z M849.4,837.7l-1.8-4.7h-0.2c-1.6,2-3.2,3.4-4.9,4.2c-1.7,0.8-3.9,1.2-6.6,1.2
		c-3.3,0-5.9-0.9-7.8-2.8c-1.9-1.9-2.9-4.6-2.9-8.1c0-3.7,1.3-6.4,3.8-8.1c2.6-1.7,6.4-2.7,11.6-2.9l6-0.2v-1.5
		c0-3.5-1.8-5.2-5.4-5.2c-2.8,0-6,0.8-9.7,2.5l-3.1-6.4c4-2.1,8.4-3.1,13.2-3.1c4.6,0,8.2,1,10.7,3c2.5,2,3.7,5.1,3.7,9.2v23H849.4z
		"/>
	<path class="st0" d="M879.2,838.3c-10.8,0-16.1-5.9-16.1-17.7c0-5.9,1.5-10.4,4.4-13.5c2.9-3.1,7.1-4.6,12.6-4.6
		c4,0,7.6,0.8,10.8,2.4l-2.8,7.3c-1.5-0.6-2.9-1.1-4.1-1.5c-1.3-0.4-2.6-0.6-3.8-0.6c-4.9,0-7.4,3.5-7.4,10.4
		c0,6.8,2.5,10.1,7.4,10.1c1.8,0,3.5-0.2,5-0.7c1.5-0.5,3.1-1.2,4.6-2.3v8.1c-1.5,1-3.1,1.6-4.6,2
		C883.5,838.1,881.5,838.3,879.2,838.3"/>
	<path class="st0" d="M916.5,802.5c1.3,0,2.3,0.1,3.2,0.3l-0.7,8.8c-0.8-0.2-1.7-0.3-2.8-0.3c-3,0-5.3,0.8-7,2.3
		c-1.7,1.5-2.5,3.7-2.5,6.5v17.6h-9.4v-34.5h7.1l1.4,5.8h0.5c1.1-1.9,2.5-3.5,4.3-4.7C912.3,803.1,914.3,802.5,916.5,802.5"/>
	<path class="st0" d="M932.9,820.4c0,3.4,0.6,6,1.7,7.8c1.1,1.8,3,2.6,5.5,2.6c2.5,0,4.3-0.9,5.4-2.6c1.1-1.7,1.7-4.3,1.7-7.8
		c0-3.4-0.6-6-1.7-7.7c-1.1-1.7-2.9-2.6-5.5-2.6c-2.5,0-4.3,0.8-5.4,2.5C933.5,814.4,932.9,816.9,932.9,820.4 M956.8,820.4
		c0,5.6-1.5,10-4.4,13.2c-3,3.2-7.1,4.8-12.4,4.8c-3.3,0-6.2-0.7-8.8-2.2c-2.5-1.5-4.5-3.5-5.8-6.3c-1.4-2.7-2-5.9-2-9.5
		c0-5.6,1.5-10,4.4-13.2c2.9-3.1,7.1-4.7,12.4-4.7c3.3,0,6.2,0.7,8.8,2.2c2.5,1.4,4.5,3.5,5.8,6.2
		C956.1,813.6,956.8,816.7,956.8,820.4"/>
	<path class="st0" d="M999.9,799.9c-3.6,0-6.4,1.4-8.4,4.1c-2,2.7-3,6.5-3,11.3c0,10.1,3.8,15.1,11.3,15.1c3.2,0,7-0.8,11.5-2.4v8
		c-3.7,1.5-7.9,2.3-12.4,2.3c-6.6,0-11.6-2-15.1-6c-3.5-4-5.2-9.7-5.2-17.2c0-4.7,0.9-8.8,2.6-12.3c1.7-3.5,4.2-6.2,7.4-8.1
		c3.2-1.9,6.9-2.8,11.3-2.8c4.4,0,8.8,1.1,13.2,3.2l-3.1,7.8c-1.7-0.8-3.4-1.5-5.1-2.1C1003.3,800.2,1001.6,799.9,999.9,799.9"/>
	<path class="st0" d="M1044.3,837.7l-1.3-4.4h-0.5c-1,1.6-2.4,2.8-4.3,3.7c-1.9,0.9-4,1.3-6.3,1.3c-4.1,0-7.1-1.1-9.2-3.3
		c-2.1-2.2-3.1-5.3-3.1-9.4v-22.5h9.4v20.2c0,2.5,0.4,4.4,1.3,5.6c0.9,1.2,2.3,1.9,4.2,1.9c2.6,0,4.5-0.9,5.7-2.6
		c1.2-1.8,1.8-4.7,1.8-8.8v-16.3h9.4v34.5H1044.3z"/>
	<path class="st0" d="M1068.4,820.4c0,3.4,0.6,6,1.7,7.8c1.1,1.8,3,2.6,5.5,2.6c2.5,0,4.3-0.9,5.4-2.6c1.1-1.7,1.7-4.3,1.7-7.8
		c0-3.4-0.6-6-1.7-7.7c-1.1-1.7-2.9-2.6-5.5-2.6c-2.5,0-4.3,0.8-5.4,2.5C1069,814.4,1068.4,816.9,1068.4,820.4 M1092.3,820.4
		c0,5.6-1.5,10-4.4,13.2c-3,3.2-7.1,4.8-12.4,4.8c-3.3,0-6.2-0.7-8.8-2.2c-2.5-1.5-4.5-3.5-5.8-6.3c-1.4-2.7-2-5.9-2-9.5
		c0-5.6,1.5-10,4.4-13.2c2.9-3.1,7.1-4.7,12.4-4.7c3.3,0,6.2,0.7,8.8,2.2c2.5,1.4,4.5,3.5,5.8,6.2
		C1091.6,813.6,1092.3,816.7,1092.3,820.4"/>
	<path class="st0" d="M1118.8,802.5c1.3,0,2.3,0.1,3.2,0.3l-0.7,8.8c-0.8-0.2-1.7-0.3-2.8-0.3c-3,0-5.3,0.8-7,2.3
		c-1.7,1.5-2.5,3.7-2.5,6.5v17.6h-9.4v-34.5h7.1l1.4,5.8h0.5c1.1-1.9,2.5-3.5,4.3-4.7C1114.7,803.1,1116.7,802.5,1118.8,802.5"/>
	<path class="st0" d="M1142.1,809.2c-2,0-3.6,0.6-4.7,1.9c-1.1,1.3-1.8,3.1-1.9,5.4h13.2c0-2.3-0.7-4.1-1.8-5.4
		C1145.7,809.8,1144.1,809.2,1142.1,809.2 M1143.4,838.3c-5.6,0-9.9-1.5-13-4.6c-3.1-3.1-4.7-7.4-4.7-13c0-5.8,1.4-10.3,4.3-13.4
		c2.9-3.2,6.9-4.7,12-4.7c4.9,0,8.7,1.4,11.4,4.2c2.7,2.8,4.1,6.6,4.1,11.5v4.6h-22.3c0.1,2.7,0.9,4.8,2.4,6.3
		c1.5,1.5,3.6,2.3,6.2,2.3c2.1,0,4-0.2,5.9-0.7c1.9-0.4,3.8-1.1,5.8-2.1v7.3c-1.6,0.8-3.4,1.4-5.3,1.8
		C1148.4,838.1,1146.1,838.3,1143.4,838.3"/>
</g>
<g>
	<path class="st1" d="M320,589.1l-8.8,5.2l-0.4-0.7l2.8-1.7l-12.1-20.4l-2.8,1.7l-0.4-0.8l8.8-5.2l0.5,0.8l-2.8,1.7l12.1,20.4
		l2.8-1.7L320,589.1z M279.4,582.4l-2.7,1.2l-0.4-0.8l6.8-3.1l17.5,12.3l0.1,0l-7.3-16l-2.7,1.2l-0.4-0.8l6.4-2.9l0.4,0.8l-2.7,1.2
		l10.4,22.9l-0.9,0.4l-23.1-16.3l-0.1,0l9.5,20.9l2.7-1.2l0.4,0.8l-6.4,2.9l-0.4-0.8l2.7-1.2L279.4,582.4z M270,600.5l-5.8-9.1
		l-0.1,0l-0.4,10.9L270,600.5z M259.6,614.3l-0.2-0.8l2.9-0.8l1.1-26.2l1.4-0.4l14.4,21.8l2.6-0.7l0.3,0.8l-9.2,2.6l-0.2-0.8l3-0.8
		l-4.8-7.3l-7,2l-0.3,8.8l3.2-0.9l0.2,0.8L259.6,614.3z M237.7,617.6l-0.1-0.9l3.1-0.5l-3.5-23.5l-3.1,0.4l-0.1-0.9l10.2-1.5
		l0.1,0.9l-3.5,0.5l3.5,23.5l6.8-1c3.1-0.5,4-4.5,4.1-6.9l0.7-0.1l0.6,7.1L237.7,617.6z M227.9,605.5c-0.1-7.9-1.5-12.4-6.8-12.3
		c-5.3,0.1-6.5,4.7-6.4,12.5c0.1,7.9,1.5,12.4,6.8,12.3C226.8,617.9,228,613.3,227.9,605.5 M210.4,605.7
		c-0.1-6.8,4.2-13.3,10.7-13.5c6.6-0.1,11.1,6.3,11.2,13.1c0.1,6.7-4.2,13.4-10.7,13.5C215,619,210.5,612.5,210.4,605.7 M205.8,618
		l-10.2-0.9l0.1-0.9l3.3,0.3l2.2-23.6l-3.3-0.3l0.1-0.9l10.2,0.9l-0.1,0.9l-3.3-0.3l-2.2,23.6l3.3,0.3L205.8,618z M175.8,612.7
		l3.7,0.8c4.3,0.8,6.2-1.1,7.3-2.6c1.1-1.5,1.9-4.8,2.7-8.4c1.1-5.3,1.7-10.8-6.1-12.4l-2.8-0.6L175.8,612.7z M176.9,588.7l-2.9-0.6
		l0.2-0.8l10,2.1c7.1,1.4,10.7,7.2,9.1,14.6c-0.9,4.3-3.2,7.3-5.9,9.2c-2.9,2-6.5,1.5-8.4,1.1l-9.9-2l0.2-0.9l2.9,0.6L176.9,588.7z
		 M144.4,603.7l0.3-0.8l3.2,1.1l8-22.3l-3.2-1.1l0.3-0.8l18.2,6.5l-2.1,5.9l-0.8-0.3c0.9-4.5-1-6-4.3-7.2l-4.7-1.7l-3.7,10.3
		c3.6,1.3,4.8,1.7,6.6-1.9l0.8,0.3l-3.3,9.1l-0.8-0.3c1.1-3.9-0.2-4.9-3.7-6.2l-4,11.1l4.3,1.6c4.7,1.7,6.5,1.7,9.4-3.3l0.9,0.3
		l-2.9,6.5L144.4,603.7z M128,567.5l0.4-0.8l6.7,3.6l-4.2,19.1l0.1,0l13.9-13.8l6.7,3.6l-0.4,0.8l-2.6-1.4l-11.3,20.9l2.6,1.4
		l-0.4,0.8l-8.4-4.5l0.4-0.8l2.6,1.4l11.1-20.5l-0.1,0L127,595l-0.9-0.5l5.2-24.6l-0.1,0l-11.1,20.4l2.5,1.4l-0.4,0.8l-6-3.3
		l0.4-0.8l2.5,1.4l11.3-20.8L128,567.5z M364.8,547.9l-6.6,7.2l-0.7-0.6l2-2.2L341,544l-0.1,0.1l10,17.6l2.4-2.6l0.7,0.6l-5,5.4
		l-0.7-0.6l1.9-2l-13.3-23.3l0.7-0.7l24.6,10.9l1.9-2.1L364.8,547.9z M355.1,516.6l0.3-0.4l5.4,3.8l-0.4,0.6
		c-3.5-1.2-7.2-0.5-9.4,2.5c-1.9,2.7-1.9,6.6,0.8,8.5c1.9,1.3,3,1.5,5.7-0.3c1.3-0.9,6.3-4.6,7-4.9c2.4-1,4.9-0.4,6.6,0.8
		c1.3,0.9,2.1,2.1,2.7,3.8c0.6,1.8,0.5,4.1-1.2,6.5c-1,1.4-3.4,2.9-4.3,3.2l0.1,1.8l-0.3,0.4l-4.9-3.5l0.4-0.6
		c3.1,1.1,6.5,0.7,8.5-2.1c1.5-2.1,1.7-5.5-0.7-7.2c-5.2-3.7-10.3,10.7-18.9,4.6c-4.3-3.1-5.1-7.7-2.2-11.8c1.2-1.8,3-3.2,5.2-3.6
		L355.1,516.6z M366.6,495.8l0.8,0.4l-1.6,3l21.3,11.2l1.6-3l0.8,0.4l-9.2,17.3l-5.6-3l0.4-0.7c4.4,1.6,6.2-0.2,7.9-3.3l2.4-4.4
		l-9.8-5.2c-1.8,3.4-2.4,4.6,1,7l-0.4,0.8l-8.6-4.6l0.4-0.7c3.8,1.7,5,0.5,6.8-2.8l-10.6-5.6l-2.2,4.1c-2.4,4.5-2.6,6.3,2,9.9
		l-0.5,0.9l-6.2-3.8L366.6,495.8z M391.1,503.7l-0.8-0.3l1.2-3l-20.7-8c-3.5-1.4-4.7-5.2-3.5-8.4c0.6-1.6,2.5-3.3,4.6-2.5
		c1.3,0.5,1.9,1.5,1.4,2.8c-0.4,1-1.5,1.6-2.6,1.2c-1.1-0.4-1.2-1.3-1.6-1.4c-0.5-0.2-0.9,0.5-1,0.9c-0.5,1.3,0.2,2.4,1.6,2.9
		l23.2,9l1.3-3.2l0.8,0.3L391.1,503.7z M378.9,451.8l0.1-0.5l6.6,1.2l-0.1,0.7c-3.7,0.4-6.8,2.5-7.5,6.2c-0.6,3.3,1,6.8,4.3,7.4
		c2.2,0.4,3.4,0.1,5.1-2.7c0.8-1.3,3.8-6.8,4.3-7.3c1.8-2,4.3-2.4,6.4-2c1.6,0.3,2.8,1,4,2.3c1.3,1.4,2.1,3.5,1.6,6.4
		c-0.3,1.7-1.9,4-2.6,4.7l0.8,1.6l-0.1,0.5l-5.9-1.1l0.1-0.8c3.3-0.3,6.2-2,6.8-5.4c0.5-2.6-0.8-5.7-3.6-6.3
		c-6.3-1.2-4.9,14-15.2,12.1c-5.2-1-7.8-4.8-6.9-9.8c0.4-2.1,1.4-4.1,3.2-5.4L378.9,451.8z M379.1,449.9l0.9-10.4l0.9,0.1l-0.3,3.3
		l24,2.2l0.3-3.3l0.9,0.1l-0.9,10.4l-0.9-0.1l0.3-3.3l-23.9-2.2L380,450L379.1,449.9z M381.1,422.3l0.1,3.8c0.1,4.5,2.5,5.9,4.2,6.6
		c1.8,0.8,5.2,0.8,8.9,0.8c5.5-0.1,11.1-0.8,10.9-8.8l-0.1-2.9L381.1,422.3z M405,418.1l-0.1-3l0.9,0l0.2,10.4
		c0.1,7.3-4.7,12.1-12.5,12.3c-4.5,0.1-7.9-1.5-10.4-3.8c-2.6-2.4-2.9-6-3-8.1l-0.2-10.3l0.9,0l0.1,3L405,418.1z M391.3,395.3
		l0.4,2.1c0.7,4.2,1.5,6.8,6.7,5.9c3.7-0.7,4.6-2.4,3.9-6.1l-0.6-3.6L391.3,395.3z M376,391.1l0.9-0.2l0.5,2.9l23.7-4.1l-0.5-2.9
		l0.9-0.1l1.9,11.2c1.3,7.3-2.4,9.1-4.1,9.4c-5,0.9-6.7-3.4-7.6-6.9l-0.1,0c-0.3,4.6-1.4,7.8-7.5,8.5c-1.8,0.2-3.5,0.7-3.8,1.6
		c-0.4,0.8,0.1,2.2,0.8,3.4l-0.9,0.2c-0.7-1.2-1.1-2.3-1.3-3.3c-0.5-2.7,0.7-4.5,2.4-5.3c0.6-0.3,3.7-1.1,5.9-1.7
		c1.7-0.5,4.5-1.3,3.7-6.1l-0.4-2.3l-12.4,2.1l0.5,3l-0.9,0.2L376,391.1z M386.9,382.7c7.6-2.4,11.6-5.1,10-10.2
		c-1.6-5.1-6.4-5-14-2.5c-7.6,2.4-11.6,5.1-10,10.2C374.5,385.3,379.3,385.2,386.9,382.7 M381.5,365.8c6.5-2.1,14.2,0.1,16.2,6.5
		c2,6.3-2.9,12.6-9.4,14.7c-6.5,2.1-14.2-0.1-16.3-6.4C370,374.2,375,367.9,381.5,365.8 M384.9,358.7l-0.4-0.8
		c3-2.3,4.7-5.4,2.9-9.1c-1.1-2.2-3.4-3.2-5.1-3.3c-3.2-0.1-8.2,2.2-10.1,3.2c-6,2.9-9.9,5.7-7.3,11.2c1.6,3.4,5.5,4.1,9,3.5
		l0.4,0.8l-6.3,3.1l-0.5-0.9l1-1.7c-2.2-1-3.7-2.6-4.6-4.5c-3.1-6.4,0.7-12.8,7.4-16c6.8-3.3,14.6-0.6,16.9,4.3c1,2.1,1,3.8,0.7,6
		l1.6,0.7l0.3,0.5L384.9,358.7z M348.2,332.9l-6.5-8.1l0.7-0.6l2.1,2.6l18.8-15l-2.1-2.6l0.7-0.5l6.5,8.1l-0.7,0.6l-2.1-2.6
		l-18.8,15l2.1,2.6L348.2,332.9z M340,302.1l1.5,1.5c3,3,5.1,4.6,8.9,0.9c2.7-2.6,2.3-4.6-0.3-7.2l-2.6-2.6L340,302.1z M325,307.5
		l0.6-0.6l2.1,2.1l17-17l-2.1-2.1l0.6-0.6l8.1,8.1c5.2,5.3,3.3,8.8,2,10c-3.6,3.6-7.4,1.1-10.2-1.2l-0.1,0.1
		c2.3,3.9,3.3,7.2-1.2,11.3c-1.4,1.2-2.5,2.6-2.1,3.5c0.2,0.9,1.3,1.7,2.6,2.3l-0.7,0.7c-1.3-0.6-2.2-1.2-3-1.9
		c-2-1.9-2-4.1-1.1-5.7c0.4-0.6,2.4-3,3.9-4.8c1.1-1.4,2.9-3.7-0.5-7.1l-1.6-1.6l-8.9,8.9l2.2,2.2l-0.6,0.6L325,307.5z M334.2,290.6
		l-0.7-0.5c1.6-3.4,1.7-7-1.5-9.4c-2-1.5-4.5-1.3-6-0.6c-2.9,1.4-6.3,5.7-7.5,7.4c-4,5.3-6.2,9.6-1.3,13.3c3,2.3,6.8,1.2,9.6-0.9
		l0.7,0.6l-4.2,5.6l-0.8-0.6l0.1-1.9c-2.4,0.1-4.4-0.6-6.2-1.9c-5.7-4.3-5.2-11.7-0.7-17.6c4.6-6.1,12.7-7.1,17.1-3.9
		c1.9,1.4,2.6,2.9,3.3,5.1l1.8-0.1l0.5,0.4L334.2,290.6z M304.5,280.5l2.4-10.7l-0.1-0.1l-8.1,7.5L304.5,280.5z M287.2,282.8
		l0.4-0.8l2.7,1.5l19.7-17.9l1.3,0.7l-5.4,25.9l2.4,1.3l-0.4,0.8l-8.5-4.8l0.4-0.8l2.7,1.5l1.9-8.7l-6.4-3.6l-6.6,6.1l2.9,1.6
		l-0.4,0.8L287.2,282.8z M271.7,276.9l-0.5-0.2l2.5-6.2l0.7,0.3c-0.3,3.7,1.1,7.2,4.6,8.6c3.1,1.2,6.8,0.4,8.1-2.8
		c0.9-2.1,0.7-3.3-1.6-5.5c-1.1-1-6-5.1-6.3-5.7c-1.6-2.1-1.5-4.6-0.7-6.6c0.6-1.5,1.5-2.6,3.1-3.5c1.6-1,3.9-1.4,6.6-0.3
		c1.6,0.7,3.6,2.6,4.1,3.5l1.8-0.5l0.5,0.2l-2.3,5.6l-0.7-0.3c0.4-3.3-0.8-6.5-4-7.8c-2.4-1-5.8-0.4-6.8,2.3
		c-2.4,6,12.7,7.6,8.8,17.3c-2,4.9-6.3,6.7-11,4.8c-2-0.8-3.8-2.2-4.7-4.2L271.7,276.9z M248.4,260.1l-1.4-10.9l-0.1,0l-5,9.8
		L248.4,260.1z M232.9,268.2l0.1-0.9l3,0.5l12.4-23.6l1.5,0.2l3.8,26.2l2.7,0.4l-0.2,0.9l-9.6-1.6l0.1-0.9l3.1,0.5l-1.3-8.8
		l-7.3-1.2l-4.1,7.9l3.3,0.5l-0.1,0.9L232.9,268.2z M231.1,249.3l-0.9,0c-0.7-3.7-2.7-6.6-6.7-6.7c-2.5,0-4.4,1.6-5.2,3
		c-1.6,2.8-1.7,8.3-1.8,10.4c-0.1,6.6,0.6,11.4,6.7,11.6c3.8,0.1,6.2-3,7.2-6.4l0.9,0l-0.1,7l-1,0l-1-1.6c-1.9,1.5-4,2.1-6.1,2
		c-7.2-0.1-11-6.4-10.9-13.8c0.2-7.6,6.1-13.2,11.6-13.1c2.3,0.1,3.8,0.8,5.6,2.2l1.3-1.1l0.6,0L231.1,249.3z M210.3,268.1
		l-10.4,0.9l-0.1-0.9l3.3-0.3l-2-24l-3.3,0.3l-0.1-0.9l10.4-0.8l0.1,0.9l-3.3,0.3l2,24l3.3-0.3L210.3,268.1z M180.2,272.3l-0.2-0.9
		l3.1-0.6l-4.3-23.7l-3.1,0.6l-0.2-0.9l10.3-1.9l0.2,0.9l-3.5,0.6l4.3,23.7l6.8-1.2c3.1-0.6,3.9-4.6,3.9-7.2l0.7-0.1l0.9,7.2
		L180.2,272.3z M170.4,261.6c-2.5-7.6-5.2-11.5-10.3-9.9c-5.1,1.7-4.9,6.5-2.4,14.1c2.5,7.6,5.2,11.6,10.3,9.9
		C173.1,274,172.9,269.2,170.4,261.6 M153.5,267.1c-2.1-6.5,0-14.2,6.4-16.2c6.3-2.1,12.6,2.8,14.7,9.3c2.1,6.5,0,14.2-6.3,16.3
		C162,278.6,155.6,273.6,153.5,267.1 M143.7,270.7l-5-9.8l-2.7,1.4l-0.4-0.8l8.7-4.4l0.4,0.8l-2.7,1.4l10.9,21.4l2.7-1.4l0.4,0.8
		l-8.7,4.4l-0.4-0.8l2.7-1.4l-5.4-10.6l-9.9,5l5.4,10.6l2.7-1.4l0.4,0.8l-8.7,4.4l-0.4-0.8l2.7-1.4l-10.9-21.4l-2.7,1.4l-0.4-0.8
		l8.7-4.5l0.4,0.8l-2.7,1.4l5,9.9L143.7,270.7z M121.1,300.4l-0.5-0.7l2.6-1.8l-13.9-19.6l-2.2,1.5c-3,2.1-1.7,4.6-0.1,8.1l-0.8,0.6
		l-4-6.3l16.3-11.5l4.5,5.9l-0.8,0.6c-2.5-2.7-5.2-4.4-8.5-2.1l-1.4,1l13.9,19.6l2.6-1.8l0.5,0.7L121.1,300.4z M104.6,300.5
		l-9.4-5.7l-0.1,0.1l4.5,10.1L104.6,300.5z M101.3,317.6l-0.6-0.7l2.3-2l-10.7-24.4l1.1-1l22.8,13.4l2-1.8l0.6,0.7l-7.2,6.5
		l-0.6-0.7l2.3-2.1l-7.7-4.5l-5.5,4.9l3.7,8.2l2.5-2.2l0.6,0.7L101.3,317.6z M85.4,307.2l-0.6,0.7c-3.3-1.7-6.8-2.1-9.5,1.1
		c-1.6,1.9-1.5,4.4-0.9,6c1.2,3,5.4,6.6,7,7.9c5.1,4.3,9.3,6.7,13.2,2c2.4-2.9,1.5-6.7-0.4-9.7l0.6-0.7l5.4,4.5l-0.7,0.8l-1.9-0.2
		c0,2.4-0.8,4.4-2.2,6.1c-4.6,5.5-11.9,4.6-17.6-0.2c-5.8-4.9-6.5-13.1-3-17.2c1.5-1.8,3-2.5,5.2-3.1l-0.1-1.7l0.4-0.4L85.4,307.2z
		 M71.7,361.5l-0.2,0.5l-5.9-3.1l0.3-0.7c3.6,0.7,7.2-0.4,9-3.7c1.5-2.9,1.1-6.8-1.9-8.4c-2-1.1-3.2-1.1-5.6,1
		c-1.1,1-5.7,5.4-6.3,5.7c-2.3,1.3-4.8,1-6.7,0c-1.4-0.7-2.4-1.8-3.2-3.5c-0.8-1.7-1-4,0.4-6.6c0.8-1.6,3-3.3,3.9-3.7l-0.3-1.8
		l0.3-0.5l5.3,2.8l-0.4,0.7c-3.2-0.7-6.5,0.1-8.1,3.2c-1.2,2.3-0.9,5.7,1.6,7c5.7,3,8.8-11.9,18.1-7c4.7,2.5,6,6.9,3.7,11.4
		c-1,1.9-2.5,3.6-4.7,4.2L71.7,361.5z M57.5,368.4l-10.9-0.6l0,0.1l8.6,6.8L57.5,368.4z M62.5,385.1l-0.8-0.3l1.1-2.9l-20.8-16.6
		l0.5-1.4l26.5,1.3l0.9-2.5l0.8,0.3l-3.4,9.1l-0.8-0.3l1.1-2.9l-8.9-0.4l-2.6,6.9l7,5.5l1.1-3.1l0.8,0.3L62.5,385.1z M59.8,397.7
		l-0.9-0.2l0.7-3.1l-23.4-5.5l-0.6,2.6c-0.8,3.6,1.7,4.6,5.3,6.2l-0.2,1l-7.2-2.1l4.5-19.4l7.3,1.4l-0.2,1c-3.7-0.4-6.8,0.2-7.7,4.1
		l-0.4,1.7l23.4,5.5l0.7-3.1l0.9,0.2L59.8,397.7z M58.8,403l-1.4,10.3l-0.9-0.1l0.4-3.3l-23.8-3.2l-0.4,3.3l-0.9-0.1l1.4-10.3
		l0.9,0.1l-0.4,3.3l23.8,3.2l0.4-3.3L58.8,403z M56.6,431.2l0,0.5l-6.6-0.2l0-0.7c3.5-0.9,6.3-3.5,6.5-7.2c0.1-3.3-2-6.6-5.4-6.7
		c-2.3-0.1-3.3,0.4-4.6,3.4c-0.6,1.4-2.8,7.3-3.2,7.9c-1.5,2.2-3.9,3-6,2.9c-1.6-0.1-2.9-0.6-4.3-1.7c-1.5-1.2-2.6-3.2-2.5-6.1
		c0.1-1.8,1.3-4.3,1.9-5l-1.1-1.5l0-0.5l6,0.2l0,0.8c-3.2,0.7-5.8,2.9-6,6.4c-0.1,2.6,1.6,5.6,4.5,5.7c6.4,0.2,2.8-14.6,13.3-14.2
		c5.3,0.2,8.4,3.6,8.2,8.7c-0.1,2.2-0.7,4.3-2.4,5.8L56.6,431.2z M43.5,451.2l-0.2-2.1c-0.4-4.2-1-6.8-6.3-6.4
		c-3.7,0.4-4.7,2.1-4.4,5.8l0.3,3.7L43.5,451.2z M58.5,456.6l-0.9,0.1l-0.3-3L33.4,456l0.3,3l-0.9,0.1l-1.1-11.4
		c-0.7-7.4,3.1-8.9,4.8-9c5-0.5,6.4,3.9,7.1,7.4l0.1,0c0.7-4.5,2-7.7,8.1-7.9c1.9-0.1,3.6-0.5,3.9-1.3c0.4-0.8,0.1-2.2-0.5-3.4
		l1-0.1c0.6,1.3,0.9,2.3,1.1,3.4c0.3,2.7-1,4.4-2.8,5.1c-0.7,0.3-3.8,0.8-6,1.3c-1.8,0.4-4.6,1-4.2,5.8l0.2,2.3l12.5-1.2l-0.3-3
		l0.9-0.1L58.5,456.6z M63.7,478.4l-0.9,0.2l-0.8-3.3l-23.4,5.7l0.8,3.3l-0.9,0.2l-4.6-19l6.1-1.5l0.2,0.8c-4.3,1.7-4.5,4.2-3.7,7.7
		l1.2,4.9l10.8-2.6c-0.9-3.8-1.3-5-5.4-4.5l-0.2-0.8l9.5-2.3l0.2,0.8c-4,1.2-4.1,2.9-3.2,6.6l11.6-2.8l-1.1-4.5
		c-1.2-5-2.2-6.5-8-6.1l-0.2-1l7.1-1.2L63.7,478.4z M48.3,509.8l-3.6-9.1l0.8-0.3l1.1,2.8L62.2,490l0-0.1l-20.2,1.3l1.3,3.3
		l-0.8,0.3l-2.7-6.8l0.8-0.3l1,2.5l26.7-1.7l0.4,0.9L48,506.8l1,2.6L48.3,509.8z M72.9,500.8l4.9,9.2l-0.8,0.4l-1.6-3l-21.3,11.3
		l1.6,2.9l-0.8,0.4l-4.9-9.2l0.8-0.4l1.6,3l21.3-11.3l-1.6-2.9L72.9,500.8z M68.7,541.7l1.7,2.5l-0.7,0.5l-4.2-6.2l9.3-19.6
		l-0.1-0.1l-14.7,10l1.7,2.5l-0.7,0.5l-4-5.9l0.7-0.5l1.7,2.5l21.1-14.4l0.6,0.8l-12.3,25.9l0,0.1l19.2-13.1l-1.7-2.4l0.7-0.5l4,5.9
		l-0.7,0.5l-1.7-2.5L68.7,541.7z M88.6,565.8l-6.6-7.2l0.7-0.6l2,2.2l9.8-17.9l-0.1-0.1L76,550.8l2.4,2.6l-0.7,0.6l-5-5.4l0.7-0.6
		l1.9,2l24.3-11.3l0.7,0.7l-12.9,23.7l1.9,2.1"/>
	<path class="st0" d="M200.6,428.3c0.1,0.6,0.9,1.1,1.6,0.9c1-0.3,0.6-4.7,0.5-4.8C202.6,424.4,200.5,427.1,200.6,428.3"/>
	<path class="st0" d="M208.9,448.3c0.2,0.1,1.3,0.8,1.7,0.4c0.3-0.3-7-6.1-21.4-8.8c-6.7-1.2-13.1-1.5-17.8-1.5c-4.9,0-8,0.3-8,0.3
		c-0.8,0.1-1.3,1.6-1.3,1.6s4.5-0.4,9.3-0.4c4.7,0,10.9,0.3,17.5,1.5C197.2,442.9,204.1,444.9,208.9,448.3"/>
	<path class="st0" d="M329.4,438.6c0,0-0.3,0.2-0.8,0.5c-0.4,0.2-1,0.5-1.5,0.5c-0.1-0.1-0.4-0.5-0.9-0.9c0.5-0.7,1.1-1.5,1.8-1.9
		c0.9-0.5,1.8-0.5,1.8-0.5c0.3-0.1,0.5-0.5,0.4-0.8c-0.1-0.3-0.5-0.5-0.8-0.4c0,0.1-3.4,1.2-4.8,3.7c-0.2,0.3,0,0.7,0.3,0.9
		c0.1,0.1,0.2,0.1,0.4,0.1c0,0,0,0,0.1,0c0.4,0.2,0.5,0.4,0.7,0.7c0.1,0.1,0.3,0.4,0.6,0.5c0.5,0.7,1.1,0.9,1.6,0.9h0
		c0.3,0,0.5-0.1,0.5-0.2l0.2-0.2l1.3-1.9c0.2-0.3,0.1-0.6-0.1-0.9C330.1,438.4,329.7,438.4,329.4,438.6"/>
	<path class="st0" d="M346.7,446.3c-1.3,1.3-2.6,1.7-2.6,0.6c0-0.4,0-1-0.2-1.4c-0.4-0.8-1.1,0.8-1.5,1.2c-0.9,1-1.3,1.7-1.9,2.4
		c-0.9,1-2.1,2.5-3.5,2.8c-1.8,0.5-1.8-1.5-3.3-1.6c0,0-1-0.3-0.8-1.1c1.3-1.5,1-1.5,0.3-1.7c-0.3-0.1-0.3,0.1-1.6,0.9
		c-0.4,0.4-1.1,0.1-1.3-0.3c-0.1-0.1,0,0-0.4-0.5c-0.3-0.5-0.6-0.8-0.9-0.7c-0.6,0.1-1,0.7-1.5,1c-1.2,0.5-1.7-1-1.8-1.8
		c-0.2-1-0.3-1.4-0.5-2.3c-0.2-0.7-0.6-2.6-0.9-3.3c-0.2-0.5-0.2-0.3-0.4-0.8c-0.2-0.4-0.6-0.7-0.8-1.1c-0.1-0.3-0.2-0.7-0.3-1.1
		c-0.5-1.6-2.2-4-1.1-5.6c0.9-1.2,3.1-1.2,4.4-0.8c2.3,0.7,4.4,2.9,6.4,4.3c0.7,0.6,1.5,1.2,2,1c0.2,0,0.3-0.2,0.4-0.3
		c0-0.2,0.2-0.5,0.3-0.8c-1.1,0.8-3.5-2.2-3.9-2.9c-1.1-2.1-1.4-3.4-4.2-3.5c0-0.3-0.1-0.7-0.1-0.9c0.1-0.8-2.9,0.9-3,0.9
		c-1.4,0.8-2,1.3-3.1,2.7c-0.1,0.2-0.3,0.4-0.4,0.6c-2.4-1.7,0.4-6.1,1.5-7.8c1.9-2.7,4.5-5.3,7.6-6.5c10.6-4.1,15.9,0.4,18.5,6.2
		c1.4,2.5,2.2,3.9,2.5,4.8c1.8,4.9,4.3,6,3.7,6.8c-0.1-0.2-3,0.5-3.3,0.4c-0.7-0.2-0.8-0.9-1.5-0.9c0.5,1-0.9,1-1.6,1.1
		c-1.4,0.3-3.6,0.5-4.7-0.6c-0.3-0.4-0.6-1.8-0.9-1.9c-1.3-0.5-0.4,2.7,0.2,3.2c0.1,0.1-0.7,0.4-0.8,0.4c-0.4,0.1-0.7,0-1-0.3
		c-0.7-0.5-1-1.5-1.3-2.2c-0.3-0.7-0.7-3.5-2-3.1c-0.3,0.1-0.5,0.3-0.7,0.5c0.1,0,0.3,0,0.5,0.1c0.1,0.1,0.2,0.3,0.2,0.4
		c0.3,0.2,0.6,0.7,1,1.7c0.4,1,0.7,2.4,1.5,3.1c0.9,0.7,2.4,0.8,3.3,0.2c0.4-0.2,0.2-0.3,0.6-0.1c0.4,0.2,0.5,0.4,0.9,0.4
		c1.1,0.2,2.8-0.1,3.6-1c0.1-0.1,0.7,0.5,0.8,0.6c0.4,0.1,0.8-0.1,1.2-0.2c0.9-0.3,2-0.6,2.8-0.1c0.8,0.5,1.3,1.5,1.3,1.5
		C354.2,440.4,352.5,440.6,346.7,446.3 M337,469.9c0.1,0,2.1,0,2.1,0s0.3,6.5,1.8,9.4c0,0,0.2,1.4-0.2,1.2
		c-0.7-0.3-12.7-2.3-14.2-2.3c-0.6,0-7.4,0.5-8.2,0c-1.1-0.7,0.2-3.8,0.7-4.9c1.1-2.4,2.3-1,4.1-0.6c3.3,0.7,4.2,1.1,6,1.3
		c1.9,0.2,4,0.6,5.7,1.4c0.2,0.1,0.3,0.2,0.5,0.3c0.7,0.4,1.8,1.5,1.8,0.6c-0.9-1-1.6-1.2-1.3-2.7
		C336.2,472.2,336.7,471.3,337,469.9 M323.2,485.8c-1.2-0.5-2.2-0.6-3.5-0.8c-1.6-0.3-3.1-1.1-4.7-1.5c-0.5-0.1-1.1-0.3-1.7-0.3
		c-1.2,0.1-2.1,0-3.3-0.1c-1-0.1-1.9,0.5-3,0.3c-0.8-0.2-1.5-0.7-0.5-1.4c1.7-1.1,3.6-1.6,5.5-2.2c2.7-0.8,5.3-0.7,6.9-0.5
		c0.9,0.1,1.9,0.2,2.8,0.3c0.5,0.1,1.9,0.1,2.2,0.5C324.8,481.2,323.5,484.9,323.2,485.8 M305.1,479c-0.6-1.6-1.5-3.2-2.2-4.8
		c-0.8-1.9,2.4-4.3,3.5-5.4c-0.2,1.2-0.2,2.4-0.6,3.5c-0.3,1.1-0.7,2.2-0.2,3.4C305.8,476.3,306.3,479.1,305.1,479 M298.3,406.1
		c-1.3,0.8-3.9,2-6.7,4.7c-0.6,0.6-0.7,0.4-0.7,1.1c1-0.3,3.9-3.8,7.4-5.1c0.4,0.7-0.9,1.7-1.8,2.2c-0.7,0.4-2.7,2.5-4.2,3.6
		c-0.3,0.3-0.5,0.7-0.7,1.1c-1.2,2.1-2.2,4.2-3.8,6c-1,1.1-2.1,1.8-3.5,2.5c-1.3,0.7-2.5,1.1-3.8,0.1c-0.7-0.6-1-1.3-1.4-2.1
		c-0.4-0.7-0.7-1.5-0.9-2.3c-0.1-0.4-0.2-1,0.1-1.4c0.3-0.4,0.9-0.5,1.1-1c1-1.2,0.9-2,0.9-2.2c0,0,0.9-5.2,1.5-6.1
		c0.6-0.9,1.4-1.7,2.2-2.6c0.4-0.4,0.8-0.9,1.2-1.3c0.3-0.3,0.5-1.1,0.9-1.2c0.6-0.2,1,0.8,0.9,1.2c0,0.5-0.1,1.6-1.7,3.7
		c-0.9,1.2-0.9,1.5-0.9,1.5c-0.4,0.7-0.1,1.9,0.3,1.5c0.3-0.3-0.1-0.6,0.8-1.8c0.9-1.2,1.5-1.4,1.9-3.9c0.7-0.3,3.4-2.4,4.9-2.9
		c2-0.7,4.2-1.5,4.7-1.1c0.3,0.2-0.2,1.4-1.7,1.7c-1.6,0.5-4.4,2.8-6.1,4.2c-1.1,0.9-1.6,2-1.6,2.5c0,0.8,0.8-1.5,2.8-2.7
		c1.7-1.3,3.6-2.7,5.1-3.3c1-0.5,1.3-0.5,1.8-1.1c0,0,1.6-0.7,1.9-0.2c0.3,0.5,0.2,1.5-1.6,2.2c-3.5,1.1-8,5.5-8.1,5.6
		c-0.2,0.2-0.6,1.1-0.4,1.3c0.1,0.1,0.9-1,1-1.1c0.5-0.5,1.4-1.1,2.9-2.2c1.6-1.2,3-2.1,4.5-2.7c0.7-0.3,1.2-1,1.6-0.8
		C300.3,404.5,298.4,406.1,298.3,406.1 M288.6,540.5c-1.3,0.1-9.1,0.9-9.1,1.6c0,0.7,13.9-0.1,15.5,0c1.6,0.1,1.6,4.3-0.5,4.3
		c-0.1,0-26.9-1.1-29-1.3c-2.3-0.2-1.7-7.7-1.2-10c0.2-1-6.7,7.7-19.6,7.4c-16.1-0.4-32.8-7.4-43.8-12.3
		c-4.8-2.7-13.4-8.5-16.9-27.4c2.2-3.2,4.7-2.8,6.7-2.3c19.6,4.8,16.2,34,35.9,35.2c-0.4,0,19,1.6,23.1,0.2c0.6-0.2-1.7-1.1-2.3-1.1
		c-5.5,0.1-19.9-2.5-26.2-11c-6.8-8.8-12.7-20.7-28.2-25.2c-0.9-0.3-1.8-0.4-2.7-0.4c-6.1-0.1-7.7,2.6-9.7,4.6l0.3-23.8
		c0-4.4,1-6.9,2.6-9.1c1.8-2.6,4.5-4.9,8.2-4.9c6.6-0.2,12.7,9.6,18.9,20.8c0,0,11.6,23.7,21.1,27c7.8,2.7,8.3-0.1,6.9,0
		c-3.6,0-6.3-1.1-6.3-1.1c-10.2-4.4-19.2-27-19.2-27c-3.8-9.4-12.5-21.7-21.3-22c-13.2,0-13.1,15.2-13.1,15.2s-0.3,28.1-0.3,28.2
		c-0.1,3.2-2.5,10.4-3.2,13.1c-1.3,5.3-1.1,9.5,0,12c2.1,4.6,3.3,3.7,3.3,3.7c-0.7-2.6-1.2-5.2-1.5-7.8c0-0.4-0.3-4.2,0.4-3.8
		c0.3,0.2,0.1,1.3,0.5,2.5c1,3.8,2.6,5.9,3.3,6.9c2.6,3.2,6.1,5.2,9.9,7c2.7,1.3,5,2.5,7.9,3.1c1.6,0.3,6.2,1.5,10.3-0.5
		c1.5-0.8,1.3-0.9,3-1c1.4-0.1,3.4,0.9,4.7,1.5c1.4,0.7,2,0.9,1.6,1.6c-0.6,1-1.9,2.2-2.7,3.1c-4.3,4.4-6.7,3.5-7.2,3.4
		c-0.7-0.1-1.3-1-0.9-2.1c0.5-1.4,0.4-2.4,0.8-3.7c-0.3,0-13.9-0.8-28.5,0.2c-14.6,1-30.9,3.8-33.5,3.8c-1.3-0.8-1.5-2.8-0.4-4.4
		c2.8-0.2,11.8,0.1,11.8-0.7c0-0.7-3.7-0.2-6.5-1.2c-1.9-0.4-1.8-4.2-0.1-3.9c1,0.1,7.2,1,8.7,1c4.5,0,7.5-1,7.5-1
		c0.3-0.1,0.4-0.4,0.4-0.4s0.5,0.1,2.2,0.9c0.9,0.4,0.5,1.5,0.4,2.3c-0.1,0.6-0.5,0.6-1.5,0.9c-2.2,0.9,12.5,0.3,11.2-0.3
		c-0.5-0.1-10.5-0.7-12-20.4c0.3-12.1,3.2-23.2,3.4-32.8c0.3-4.1,0.3-7.9-0.3-12.9c-0.3-2.2-2.1-16.2,17.6-18.5
		c13.3,0,23.2,5.6,29.6,9.1c15.2,8.3,24.9-10.8,36.9-9.3c17.7,3.9,11.2,29,11.7,37.3c1,17,0.1,37.4,2.5,40.9c0.7,1,0.4,1.6,7.9,1.8
		c4.7,0.1,9.8-1.2,11.1-1.5C290.1,535.6,290.4,540.3,288.6,540.5 M245.7,547.5c-6.5,0-11.9-1.2-14-1.8c-2-0.5-3.7-1.2-5.6-2
		c-3.7-1.5-8.2-4.5-12.4-4.5c-1.9,0-3,1-4.8,1.5c-6.2,1.9-8.8,0.5-10.4,0.1c-9.5-2.8-15-12.2-16.2-20.9c-0.6-4.3-1.2-8.6-1.1-12.7
		c1.1,2.9,5,13.4,7.2,16.2c2.7,3.5,5.7,5.5,8,6.8c7.3,4.1,39.7,14.6,47.5,14.9c10.4,0.4,15.4-2.6,18.4-4.9
		C259.3,544.6,253.5,547.4,245.7,547.5 M168.2,472.1c0,0.6-1.4,60-1.5,65.7c-0.9,0.2-3.4,0.8-6.7,0.8c-2,0-4.3-0.2-6.8-0.8
		c0,0-0.1-0.1-0.1-0.1c0,0-1.2-65.9-1.2-66c-0.2-4.9,5.2-3,7.6-3c3.4,0.1,7.6-0.9,8.1-0.1C168.6,469.5,168.3,471.1,168.2,472.1
		 M157.7,452.6c1.5-0.1,3.6-0.3,5.3,0.3c5.4,2,5.3,7.9,3.9,10.2c-1.4,2.3-3.2,2.8-6.6,3c-3.8,0.3-9.2-1.1-9.3-5.9
		C150.9,454.5,155.9,452.7,157.7,452.6 M174.1,459.6c-0.7,2.6-3.4-1-5.1-4.6c-0.9-2.5-0.6-4.6,0.4-6c2.4-0.7,5.2-1,6.4,0.2
		C172.2,449.7,170,452.6,174.1,459.6 M193.4,451.2c-0.4,0.5-0.8,1.4-1.1,1.7c-0.3,0.4-2.1,1.5-5,2.6c-3.6,1.4-7.3,0.2-9.7,0.5
		c-3.2,0.4-4.4-3.8-1.4-5.8c0.9-0.7,1.7-1.5,2.6-2.3c0.5-0.4,1-0.7,1.2-1.3c0.1-0.4,0.2-0.7,0.7-0.9c1-0.2,1.1,0.9,0.9,1.9
		c-0.2,1.5-2.6,2.8-1.9,3.1c2-1.2,4.3-1.8,6.4-3.4c1.1-0.8,2-1.4,3.3-1.6c0.3-0.1,1.3-0.2,1.4,0.3c0.1,0.6-0.9,0.8-1.3,1
		c-0.7,0.4-1.3,1.1-2,1.6c-0.8,0.6-1.6,1.2-2.4,1.9c-0.4,0.3-3.3,1.8-1.9,2.1c0.6,0.1,1.5-0.6,2-0.8c1-0.6,1.9-1.2,2.8-1.9
		c1.1-0.9,1.9-1.8,3.2-2.6c0.2-0.2,0.5-0.4,1.2-0.6c1.2-0.2,1.4,0.4,0.8,0.9c-1,0.8-2.5,1.7-3.4,2.6c-1.2,1.3-2.6,2.2-4,3.4
		c-0.1,0.8,1.8-0.5,2-0.6c1.1-0.7,2.2-1.5,3.2-2.4c0.8-0.8,2.3-2.4,3.2-1.6c0.5,0.4-0.9,1.2-1.2,1.6
		C193.2,450.7,193.6,451.1,193.4,451.2 M283.5,462.9c-1.6,0.9-3.8,1.3-6,1.3h-0.7c-2.3,0-4.4-0.1-5.7-0.8c-1.3-0.8-2.2-2.2-2.2-5.5
		c0-3.7,3.9-7.3,8.5-7.3c4.8,0,7.9,2.5,8.5,6.2c0.1,0.5,0.1,0.9,0.1,1.4C286.1,460.6,285.1,462,283.5,462.9 M270.4,466.7
		c0-0.6,0.6-0.9,2-0.7c1.1,0.1,3,0.5,5.7,0.5c1.6,0,6.1-0.7,6.3-0.7c1.4-0.2,1.3,1.8,1.3,3.8c0,0.5-1.1,63.4-1.1,63.4
		s1.2,0.7,1.2,1.6c0,1,0,0.6,0,0.6c-3.2,0.9-5.5,0.8-8,0.8c-2.8,0-5.5-0.7-6.4-0.9C271.5,533.3,270.4,467.6,270.4,466.7
		 M283.2,429.2c-0.1-1.8-0.4-3.4-0.6-5.1c1.3,0,2.1-0.3,3.3-0.9c0.5,1.5,2.7,8,2.7,11.3c0,0.4,0,0.7-0.1,1c-0.5,2.2-2.1,8.3-2.1,8.3
		c-0.1-0.1-1.2-3-2.8-5.2c-1-1.4-1.5-1.5-1.3-3.4c0.2-1.4,0.8-2.7,0.8-4.1C283.3,430.4,283.2,429.8,283.2,429.2 M160.8,433.6
		c0.8-1,3-3.2,7.7-3.1c8.3,0.2,18.6,2.3,24.9,3.8c17.9,5.3,30.9,19.8,31.1,20c0.6,0.5,1.1,0.8,2.2,0c0.4-0.3,24.1-18.3,53.1-18.3
		c0,0,0.1,0,0.3,0.2c1.6,1.1,4.8,6.8,4.7,6.8c0.1,0.1,1.4,2.9,1.5,3c-25.6,0-56.5,15.5-56.3,15.4c1.7-1.7,21.4-20.4,47.7-21.2
		c0.6,0,2.7,0,2.7,0s-0.3-1.5-1.1-1.5c-26.4,0.1-47,18.1-48.9,19.7c-2.2,1.9-3,3.4-3.4,3.8c-0.5,0.6-3.7,0.7-4.4-0.1
		c-5.6-5.6-17.2-18.1-41.7-18.1c-7.8,0-18.5,3.6-29.1,6.2C151.4,450.3,160.6,433.9,160.8,433.6 M169.8,414.3
		c0.1,0,27.1,16.4,37.6,24.6c-16.9-9.5-33.3-10.1-36.3-10.1C169,420.4,169.8,414.3,169.8,414.3 M180.1,411.8c1.4-1.5,2-4.2,3.3-5.4
		c0.4-0.4,0.7-0.7,0.9-1c1,0.9,2.5,2.2,3.4,3.1c1.4,1.2,3.8,2.9,5.5,3.3c0.3,0.1,0.6,0.1,0.8,0.1c0.4,0,0.7-0.1,0.9-0.1
		c0.2,0,0.2,0,0.5,0.2c1,0.8,1.8,1.1,3.2,1.4c2.3,0.5,7.1,2.7,7.6,4.4c0.5,1.7,0.5,4.1,0.5,4.1c0,2.1,0.1,4.1,0.2,5.7
		c0.1,1,0.1,1.9,0.2,2.6c0.1,0.7,0.2,1.1,0.5,1.6c1.5,1.7,4.9,3,8.4,3.3c-0.1,0.8-0.4,2.1-0.6,3.3c-0.2,1.1-0.5,2.2-0.8,3.1
		c-0.1,0.4-0.3,0.8-0.4,1.1c0,0.1-0.1,0.1-0.1,0.1c-13.1-10.5-30.3-22.5-37.9-27C176.9,414.1,178.9,413,180.1,411.8 M180.7,330
		c0-0.1,0.1-2,1.6-2.7c0.4-0.2,1-0.3,1.8-0.3c0.9,0,1.8,0.2,2.5,0.3c0.2,0,0.4,0.1,0.5,0.1c0.1,0,0.2,0,0.2,0c0.3,0,0.4-0.1,0.7-0.5
		c0.2-0.2,0.4-0.5,0.6-0.7c0.1-0.1,0.3-0.3,0.5-0.5c0.7-0.8,1.6-1.7,2.6-1.7c0.3,0,0.5,0.1,0.8,0.2c2,1.1,3.6,1.6,4.9,1.6
		c1.3,0,1.9-0.5,2.3-0.9c0.2-0.2,0.4-0.4,0.7-0.4c0.6,0,1.6,0.6,1.8,1.3c0.1,0.3,0.2,0.8-0.4,1.3c-0.9,0.8-3,2.1-5.2,2.1
		c-0.6,0-1.2-0.1-1.8-0.3c-0.4-0.1-0.8-0.4-1.2-0.8c-0.6-0.4-1.2-0.9-1.8-0.9c-0.3,0-0.5,0.1-0.7,0.3c-0.6,0.5-0.9,1-1.2,1.5
		c-0.4,0.6-0.8,1.2-1.7,1.6c-0.2,0.1-0.4,0.1-0.7,0.1c-0.8,0-1.4-0.4-2.1-0.9c-0.5-0.3-1-0.7-1.6-0.8c-0.1,0-0.2,0-0.3,0
		c-1.2,0-2.3,1.3-2.3,1.3l-0.6,0.7L180.7,330z M184.6,313.9c0.1-0.2,0.2-0.2,0.4-0.2c0.3,0,0.9,0.3,2.1,1.1c0.5,0.3,0.9,0.5,1.4,0.5
		c0.7,0,1.4-0.4,2-0.8c0.7-0.4,1.3-0.7,1.9-0.7c0.3,0,0.6,0.1,0.8,0.2c1.2,0.6,1.4,1.6,1.6,2.4c0.2,0.7,0.3,1.2,0.8,1.4
		c0.1,0,0.2,0.1,0.4,0.1c0.4,0,0.9-0.1,1.5-0.3c0.7-0.2,1.5-0.4,2.2-0.4c1.2,0,2.2,0.5,2.8,1.7c0.3,0.5,0.2,1.2-0.2,1.9
		c-0.3,0.5-0.7,0.9-1.1,0.9c-0.2,0-0.3-0.1-0.4-0.2c-0.4-0.4-0.9-0.6-1.4-0.6c-0.5,0-1,0.1-1.5,0.3c-0.6,0.2-1.2,0.3-1.7,0.3
		c-0.9,0-1.6-0.4-2.3-1.1c-0.6-0.7-0.9-1.4-1.2-2.1c-0.3-0.7-0.6-1.4-1.1-1.7c0,0,0,0,0,0c-0.3,0-0.6,0.2-0.9,0.4
		c-0.6,0.4-1.3,0.9-2.2,0.9c-1.1,0-2.1-0.7-3.2-2C184.6,314.5,184.5,314.2,184.6,313.9 M192.9,299.1l0.2-0.8l0.5,0.7
		c0.5,0.9,1.3,1.1,2.2,1.4c1,0.3,2.2,0.7,3,2.2c1.2,2.2,1,3.6,0.9,4.5c-0.1,0.9-0.2,1.2,0.9,1.7l0.8,0.4c1.7,0.8,2.2,1,2.9,1.8
		c0.5,0.5,1.3,1.6,1.1,2.5c-0.1,0.5-0.5,0.9-1.1,1.1l-0.3,0.1l-0.1-0.3c-1.3-2.4-2.6-2.5-3.9-2.5c-0.9,0-1.8-0.1-2.5-1
		c-0.8-0.9-0.7-2.2-0.6-3.5c0-1,0.1-2-0.2-3c-0.5-1.5-1.4-2-2.2-2.5C193.4,301.4,192.6,300.8,192.9,299.1 M204.4,296.6
		c0.8-2.7,2.3-3.6,2.7-3.6h0.2l0.1,0.2c0.1,0.2,0,0.3-0.1,0.7c-0.3,0.6-1,2.1-0.7,3.4c0.2,0.8,1.1,1.1,2,1.4
		c1.1,0.4,2.3,0.8,2.5,2.1c0.3,1.2-0.3,2.4-0.8,3.3c-0.4,0.8-0.8,1.6-0.6,2.3c0.1,0.4,0.6,0.7,1.1,1c1,0.5,2.3,1.3,1.3,3.7
		c-0.2,0.5-0.8,0.8-1.6,0.8c-0.6,0-1.3-0.2-1.6-0.5c-0.2-0.2-0.2-0.4-0.2-0.5c0.2-1.5-0.4-2-1.2-2.6c-0.6-0.5-1.2-1-1.1-2
		c0.2-0.9,0.6-1.7,1-2.3c0.4-0.7,0.7-1.2,0.7-1.8c0-0.2-0.5-0.3-1-0.5C205.7,301.2,203.4,300.5,204.4,296.6 M216.3,287.1
		c-0.3-0.3-0.5-0.4-0.4-0.6l0.1-0.2l0.2-0.1h0.1c0.5,0,3,0.7,4.8,4c1.3,3.4-0.5,5-1.8,6.1c-0.6,0.6-1.1,1-1.1,1.5
		c0,0.6,0.4,0.9,1,1.4c0.8,0.5,1.7,1.1,1.7,2.7c0,1.4-0.5,2.1-1,2.8c-0.5,0.6-0.9,1.2-0.9,2.5c0,0.8,0.1,1.7,0.3,2.5
		c0.1,0.2,0.1,0.3,0.2,0.5c0.2,0.5,0.5,1.2,0.2,1.7l-0.1,0.3l-0.3-0.1c-2.1-0.9-3.4-2.5-3.5-4.4c0-1.1,0.4-2,0.8-3
		c0.4-0.8,0.8-1.6,0.8-2.5c0-1.3-0.4-1.4-1-1.6c-0.9-0.2-1.6-0.6-1.6-2.6c0-1.6,1.2-2.6,2.3-3.5c1-0.9,2-1.7,2-2.9
		C219.2,289.7,217.1,287.8,216.3,287.1 M223.8,305.4c0.6-0.6,1.1-1.1,1.3-1.6c0.2-0.8,0-1.4-0.3-2.1c-0.3-0.8-0.7-1.8-0.4-3.2
		c0.3-1.5,1.8-1.6,3.1-1.8c1.4-0.1,2.2-0.3,2.4-1.1c0.3-1.7-1-3.7-1.4-4.4c-0.2-0.4-0.3-0.5-0.2-0.7l0.1-0.2l0.2,0
		c0.4,0,2.7,1.3,3.5,4.5c0.3,1.7,0.2,2.9-0.4,3.7c-0.8,1-2.1,1.1-3.2,1.1c-0.6,0-1.2,0.1-1.3,0.3c-0.1,0.7,0.1,1,0.4,1.5
		c0.3,0.5,0.6,1.1,0.8,2.2c0.2,1.4-0.8,2.2-1.8,2.9c-0.7,0.5-1.3,1-1.4,1.6c-0.1,0.3-0.1,0.6-0.1,0.9c0,1-0.1,2.2-1,2.7
		c-0.3,0.2-0.6,0.3-0.9,0.3c-0.7,0-1.2-0.4-1.4-1C221,308.3,222.6,306.7,223.8,305.4 M233.8,304.6c-0.4-1-0.9-2-0.1-3.1
		c0.6-0.9,1.5-0.9,2.3-0.9c0.4,0,0.8,0,1.2-0.2c0.9-0.4,1.1-1.2,1.4-2.2c0.1-0.3,0.1-0.6,0.2-0.9c0.3-0.8,0.7-1.6,1.3-2.3
		c0.6-0.7,0.7-0.7,0.8-0.7h0.2l0.2,0.3l-0.1,0.3c-0.3,0.7-0.4,1.5-0.6,2.2c-0.1,0.4-0.1,0.7-0.2,1.1c-0.1,0.3-0.1,0.6-0.1,1
		c-0.1,0.8-0.2,1.7-0.6,2.2c-0.7,0.9-1.6,1-2.4,1c-0.6,0-1.1,0-1.5,0.4c-0.1,0.2,0.3,1.4,0.5,2.2c0.3,1,0.6,2,0.6,2.7
		c-0.2,1.3-1.3,1.8-2.2,2.3c-0.2,0.1-0.4,0.2-0.6,0.3c-0.4,0.2-0.6,0.6-0.8,1c-0.2,0.4-0.5,0.9-1,1.2c-0.4,0.2-1.3,0.5-2,0.5
		c-0.4,0-0.7-0.1-0.9-0.2c-0.2-0.2-0.4-0.4-0.4-0.7c0-1,1.6-2.3,3.7-3.9c0.6-0.4,1.2-0.9,1.4-1.1c0-0.1,0.1-0.2,0.1-0.2
		C234.4,306.1,234.1,305.4,233.8,304.6 M243.8,310.7L243.8,310.7c0.4,0,0.9,0.1,1.6,0.2c1.1,0.2,2.6,0.4,3.6,0.4
		c0.9,0,1.1-0.2,1.1-0.2l0.7,0.1c-0.1,1.6-3.2,2.1-3.9,2.1l-0.2,0c-0.4,0-0.7-0.1-1.1-0.1c-0.3,0-0.6-0.1-1-0.1
		c-1.1,0-1.8,0.9-2.5,1.7c-0.3,0.3-0.5,0.6-0.8,0.9c-1.2,1.1-2.3,1.6-3.5,1.6c-0.4,0-0.7-0.1-1.1-0.1c-0.6-0.2-0.9-0.6-1-1.1
		c-0.1-0.7,0.3-1.6,1-2c0.6-0.3,1.1-0.4,1.7-0.4l0.7,0c0.2,0,0.4,0,0.6,0c0.4-0.1,0.7-0.2,1-0.5c0.2-0.3,0.5-0.5,0.7-0.8
		C242,311.6,242.6,310.8,243.8,310.7 M256.2,322.1l0.5,0.8l-0.9-0.3c-0.3-0.1-0.5-0.1-0.8-0.1c-2.4,0-3.7,2.8-6.1,2.8
		c-0.3,0-0.5,0-0.8-0.1c-0.5-0.1-1.8-0.8-1.7-1.5c0,0,0-0.3,0-0.3l0.3,0c0.4,0,0.7,0.2,0.8,0.3c0.2,0.1,0.3,0.2,0.4,0.2
		c0.7-0.1,1.2-0.7,1.7-1.2c0.3-0.4,0.7-0.8,1.1-1c0.7-0.4,1.7-0.9,2.8-0.9C254.6,320.7,255.5,321.2,256.2,322.1 M202.3,333.1
		c-0.3,0.2-0.7,0.5-1.1,0.9c-0.7,0.7-1.4,1.4-2.4,1.4c-0.2,0-0.4,0-0.7-0.1c-0.6-0.2-1.1-0.6-1.6-0.9c-0.5-0.3-1-0.7-1.4-0.7
		c-0.2,0-0.4,0-0.7,0.4c-0.4,0.5-0.6,1.4-0.9,2.3c-0.4,1.6-0.9,3.4-2.5,3.7c-0.4,0.1-0.8,0.1-1.1,0.1c-0.4,0-0.7-0.1-0.9-0.1
		c-0.3-0.1-0.5-0.2-1-0.2c-0.2,0-0.5,0-0.9,0c-2.3,0.3-2.9,1.6-2.9,1.7l-0.6-0.2c0-0.1,0.4-1.8,1.4-2.8c0.6-0.6,1.8-0.7,3-0.8
		c0.7-0.1,1.7-0.1,1.9-0.4c0.2-0.2,0.3-0.8,0.5-1.5c0.4-1.4,0.9-3.4,2.2-4.1c0.5-0.3,1.1-0.4,1.7-0.4c0.5,0,1,0.1,1.5,0.2
		c0.5,0.1,0.9,0.1,1.3,0.1c0.2,0,0.4,0,0.7-0.1c0.3-0.1,0.7-0.3,1.2-0.7c0.7-0.5,1.5-1,2.2-1.1c0.2,0,0.3,0,0.4,0
		c1,0,1.2,0.8,1.3,1.2C203.1,331.5,203.3,332.5,202.3,333.1 M204,338.8c0.2-1.1,0.5-2.4,1.4-2.4c0.4,0,0.8,0.3,1.3,0.8
		c0.8,0.8,2,3,1.8,4.2c0,0.4-0.2,0.7-0.4,0.8l-0.4,0.2l-0.1-0.4c0,0-0.3-0.7-1.2-0.7c-0.6,0-1.7,0.3-3.5,2c-0.4,0.4-1,0.4-1.4,0.4
		c-0.2,0-0.3,0-0.5,0c-0.2,0-0.3,0-0.5,0c-0.3,0-0.5,0-0.7,0.1c-0.6,0.3-0.9,0.9-1.4,1.2c-0.2,0.1-1.7,0.3-1.6,0.2
		c0.1-0.2,0.2-0.3,0.3-0.4c0.4-0.6,0.6-1,0.9-1.8c0.3-0.8,0.5-1.5,1.4-1.8c0.5-0.2,1.1-0.2,1.8-0.2h0.3c0.9,0,1.6-0.1,2.1-0.6
		C203.8,340,203.9,339.3,204,338.8 M227,377.8c1-3.3-0.1-4.6-1.5-6.8c-0.6-0.7-1.1-2-1.2-2.3c-0.3-0.5-1.2-2.2-2.1-3.1
		c0.4-0.1,1.5-0.3,1.7-0.3c0.3,0,0.9-0.1,1.2-0.6c0.2-0.3,0.2-1-0.1-0.9c-1.8,0.7-3.4,0.5-4.1,0.5c-0.4,0-0.9-0.7-1.2-0.9
		c-0.2-0.2-1.2-0.5-1.2-0.8c0.1,0,0.2,0,0.3-0.1c0.4-0.2,2.7,0,2-1.2c-0.3-0.5-0.8-0.1-1.1,0c-0.5,0.1-0.9-0.2-1.3-0.3
		c-0.4-0.2-1-0.4-1.4-0.3c-0.3,0.1-0.6,0.3-0.9,0.3c-0.8,0.1-1.3-0.6-2-0.9c-0.8-0.4-2.1-0.4-3-0.2c0.4-0.5,1.3-0.3,1.7-0.9
		c0.1-0.2,0.2-0.9-0.2-1c-0.2,0-0.4,0.4-0.6,0.5c-0.7,0.5-1.5,0.2-2.2,0.3c-0.7,0.1-1.3,0.6-2,0.5c0-0.3,0.8-0.5,1-0.7
		c0.2-0.2,0.5-0.4,0.7-0.6c0.3-0.2,0.3-0.6,0.1-0.9c-0.2-0.3-0.4,0.1-0.7,0.3c0,0-3.2,1.7-4,1.9c-0.8,0.3-3.1,1.1-3.8,0.4
		c-0.5-0.6,0.2-2.2,0.1-2.9c-1.6,0.1-1.5,2.4-1.6,3.4c0,0.6-0.1,1.1-0.2,1.6c-0.1,0.4,0,0.8-0.1,1.2c0,0.4-0.2,0.6-0.4,0.9
		c-0.4,0.6-0.4,1.4-1.2,1.7c-0.2,0.1-1,0.1-1.1,0.3c-0.1,0.4,0.4,0.4,0.6,0.3c0.3-0.1,0.9-0.5,1.2-0.4c0.7,0.3-1,2.8-1.3,3
		c-0.4,0.3-1.1,0.7-1,1.4c0.4,0,0.8-0.7,1.3-0.9c0.2,0.2,0,1.3,0.1,1.7c0.2,0.6,0.3,1.1,0.3,1.8c0,0.7,0.1,1.2,0.3,1.9
		c0.2,0.5,0.8,1.2,0.8,1.7c-0.7-0.2-2.2-1.5-2.5-2.2c-0.6-1.2-1-3.5-1.2-4.1c-1.9-6.1-1.3-13,4.9-16.4c3.3-1.8,6.2-3.5,10.1-3.5
		c3.2,0,6.3,0.8,8.9,2.8c1.9,1.5,2.1,1.9,4.3,3c2.2,1.1,4.1,3.7,5.1,6.3c1,2.5,0.2,4.5,1,6.9c0.1,0.2,0.2,0.4,0.2,0.7
		C230.7,373.1,229.3,378.1,227,377.8 M224,376.2c0,0,0-1.3-0.5-1.3c-0.3,0-0.3,0.7-0.3,0.7c0.1,0.7,0,1.4,0,2c0,0-0.1,10.7-8.6,10.7
		c-2.4,0-5.7-1.1-8-3.4c-0.8-0.8-2-2.3-3.2-3.8c-1.5-1.8-3-4.4-3-4.4c0.4-1,1.5-1.6,2.5-1.9c0.7-0.2,2.2-0.5,2.9-0.3
		c1.1,0.5,1.9,1.8,2.3,2.9c0.2,0.5,0.4,1.6,0.8,1.9c0.1-0.8-0.4-2.1-0.7-2.8c-0.6-1.3-1.4-2.3-2.4-3.3c-0.6-0.5-2.5,0.1-3.1,0.2
		c-1,0.3-2,0.9-2.6,1.7c-0.3,0.4-0.2,0.8-0.6,0.4c-0.3-0.2-0.5-0.8-0.6-1.1c-0.2-0.8-0.3-1.8-0.4-2.6c-0.1-0.9-0.4-1.8-0.3-2.7
		c0.1-0.9,0.5-1.7,0.7-2.7c0.2-1,0.1-1.9,0.7-2.8c0.5-0.7,0.7-1.5,1.1-2.1c0.3-0.5,0.4-0.3,0.9-0.3c0.4,0,0.9-0.1,1.3-0.2
		c1.5-0.3,3.1-1,4.6-0.8c0.9,0.1,1.7,0.1,2.5,0c0.6-0.1,0.6,0,1.1,0.2c0.4,0.2,0.9,0.2,1.3,0.2c1.1,0.1,1.4,0.4,2.2,0.9
		c0.8,0.5,1.6,0.2,2.3,0.9c0.8,0.7,1.6,1.3,2.6,2c0.6,0.4,1.2,0.7,1.6,1.3c0.3,0.5,0.7,0.9,1,1.4c0.8,1.1,1.4,2.3,1.7,3.6
		c0.2,1.2,1.4,2.6,1.6,3.7c0.6,5.4,0.7,9.1,0.3,12.8c-0.5,4.4,0.5,3,0.3,3.3c0.4-0.5,1.1-0.9,1.6-1.1c0.3-0.2,2.5-1,1.8,0.2
		c-0.3,0.6-0.6,1-1,1.5c-0.8,0.9-4.2,3.8-8.7,3.8c-2,0-4.9-0.9-7.2-2.1c-2.3-1.3-1.6-1.9-1.2-2c0.4,0,2.3,1.3,4.1,1.3
		c4.6,0,8.8-7.4,8.8-14.7C224.1,377.6,224.1,376.9,224,376.2 M235.1,323.5c-1.6,10.1-14.6,22.2-14.6,22.2c-0.4,0.5-1,0.5-1.4,0
		c0,0-14.8-13.8-15.3-22.1c-0.7-9.8,7.7-10.4,7.7-10.4c5.7-0.3,8.2,3.3,8.2,3.3c4.8-2.6,8.4-3.3,10.7-2.5
		C235.1,315.9,235.7,320.8,235.1,323.5 M254.7,344.7l-1,0.3c-0.5,0.2-1,0.4-1.4,0.5c-1.3,0.5-2.4,0.9-3.5,0.9
		c-0.8,0-1.7-0.2-2.7-0.7c-0.4-0.2-0.8-0.7-1.3-1.3c-0.6-0.7-1.3-1.6-2.1-1.9c-0.1,0-0.3-0.1-0.4-0.1c-0.5,0-1,0.3-1.5,0.5
		c-0.4,0.2-0.7,0.4-1.1,0.5c-0.3,0.1-0.7,0.1-1,0.1c-0.9,0-1.7-0.3-2.4-0.9c-0.4-0.3-0.7-0.8-1-1.2c-0.3-0.4-0.5-0.7-0.8-1
		c-0.2-0.2-0.5-0.3-0.8-0.5c-0.4-0.2-0.9-0.4-1.2-0.9c-0.3-0.3-0.4-0.8-0.2-1.3c0.2-0.6,0.6-1,1.2-1.2c0.2-0.1,0.4-0.1,0.6-0.1
		c1.2,0,2.1,1.1,3,2.2c0.6,0.8,1.3,1.6,2,1.8c0.1,0,0.1,0,0.2,0c0.3,0,0.7-0.3,1.1-0.5c0.6-0.4,1.4-1,2.5-1c0.3,0,0.7,0,1.1,0.2
		c2,0.6,2.2,1.5,2.4,2.3c0.1,0.4,0.2,0.8,0.5,1.2c0.2,0.2,0.3,0.3,0.6,0.4c1.4,0.7,2.4,0.8,3.5,0.8c0.8,0,1.6,0.1,2.8,0.4
		L254.7,344.7z M237.9,330.2c0.7,0,1.4,0.2,2.1,0.4c0.3,0.1,0.6,0.2,0.9,0.3c0.2,0.1,0.4,0.1,0.5,0.1c0.8,0,1.6-0.5,2.3-1.1
		c0.2-0.2,0.4-0.3,0.7-0.5c0.6-0.4,1.5-0.9,2.6-0.9c0.4,0,0.8,0.1,1.2,0.2c0.6,0.2,1,0.6,1.3,1c0.3,0.3,0.5,0.5,0.8,0.7
		c1.6,1,3.4,1.6,5.3,1.6c0.2,0,0.4,0,0.6,0l0,0.7c-0.6,0-1.4,0.2-2.2,0.3c-1.1,0.2-2.3,0.4-3.4,0.4c-1.4,0-2.4-0.4-3.1-1.2
		c-0.6-0.7-1.1-1.1-1.6-1.1c-0.2,0-0.3,0-0.5,0.1c-0.6,0.2-0.9,0.7-1.3,1.2c-0.5,0.7-1,1.3-1.9,1.5c-0.4,0.1-0.9,0.1-1.4,0.1
		c-0.9,0-1.6-0.1-2.3-0.2c-0.6-0.1-1.1-0.2-1.7-0.2c-0.7,0-1.3,0.1-1.8,0.5l-0.6,0.3l0.1-0.7c0-0.1,0.3-2.2,1.5-3
		C236.6,330.4,237.3,330.2,237.9,330.2 M244.4,320.5c1.3,0,3.1,0.7,3,2.2c-0.8,0-1.6-0.4-2.4-0.2c-0.7,0.2-1.5,1-2.1,1.3
		c-1.8,0.9-3.2,1.4-4.3,1.4c-1.2,0-1.7-0.6-2-1.1l-0.1-0.1c0,0,0.1-0.2,0.1-0.2c0.1-0.3,1.8-0.7,2.2-1.1c0.8-0.7,1.3-1.7,2.4-1.9
		c-0.3,0.4-0.2,0.5-0.3,1C242,321.1,243.1,320.5,244.4,320.5 M208.2,419.8c0-1.5,0.7-19,0.8-20.3c0-0.3-0.5-0.7-0.9-0.9
		c-0.4-0.1-0.4,0.2-0.5,0.5c-2.5-1.4-5.3-4.9-5.6-5.9c-0.3,2.7,4.1,6.3,5.4,7.3c-0.2,2.5-0.5,7.4-0.6,12.7c-0.1,1-1.4-0.8-3-1.1
		c-0.6-0.1-3.2-0.6-4.6-0.8c-1.3-0.2-1.8-0.4-2.7-1c0,0,0,0-0.1,0c0.2-0.7,0.7-1.9,1.4-3.5c2.1-5.2,6-8.5,6-8.5
		c-0.1-0.4-1-0.2-1.4,0.1c-4.6,4.2-6.7,9.3-7.4,11.4c-0.1,0-0.2,0-0.3,0c-0.4,0-0.6,0.1-0.9,0.1c-0.1,0-0.3,0-0.4,0
		c-0.8-0.1-3.5-1.7-4.5-2.7c-1.2-1.1-3.3-3-4.1-3.7c-0.1-0.1-0.1-0.1-0.2-0.1c0-0.1,0.1-0.2,0.1-0.4c2.1-5.5,12.9-10.8,17-12.5
		c1.2-0.5,4.3-1.3,4.8-1.3v0.1c0.1,2.5,2.3,4.2,4.8,5.7c2.6,1.4,5.6,2.4,8.2,2.4c5.5,0,8.9-3.5,9.9-4.6c0.4-0.4,1-1.1,1.6-1.8
		l0.6-0.7c0.2-0.3,0.7-0.5,1-0.6c0.1,0,0.2,0,0.3,0c0.4,0.1,2.6,1.4,3.9,2.3l0.3,0.1c3.2,0.7,7.3,3.6,10.3,6.8
		c1.5,1.6,2.8,3.5,3.8,4.8c0.5,0.6,1.1,1.5,1.3,2c0.3,0.6-1.5,1.6-1.5,1.6s-4.4,2.1-5.8,2.6c-1.7,0.6-4.8,2.4-4.9,2.4
		c-0.6-2-4.4-9.7-8.4-11.9c-0.2-0.1,0,0.9,0,0.9c2.7,2.5,4.5,5.5,5.6,7.9c0.6,1.3,1,2.4,1.3,3.2c-0.5,0.2-1.3,0.3-1.6,0.5
		c0,0-1.1,0.3-1.9,0.4c-0.9,0.2-1.6,0.3-1.7,0.3l-0.1,0l-0.8,0.2c-0.5,0.1-1,0.3-1.4,0.5c-0.3-4.6-0.7-9.3-1.5-13.4
		c1.3-1.1,5.3-4.6,6-6.9c0.1-0.3-0.1-0.5-0.1-0.8c-0.3,1-3.7,4.9-6.2,6.4c-0.1-0.5-0.2-1.1-0.3-1.6c-0.1-0.4-0.2-0.7-0.4-0.7
		c-0.4,0.1-1.2,0.6-1.1,1c1.1,4.8,2.1,17.5,2.1,17.5c0.1,2.5,0.2,5,0.2,7.4c0,2.8-0.1,5.4-0.2,7.6c0,0,0,1.2-1.4,1.5
		c-0.8,0.1-4.5,0.6-4.9,0.6c-2.4,0.2-6.2,0.3-7,0.3c-3.3-0.2-6.7-1.6-7.7-2.8v0C208.5,429.9,208.2,425.1,208.2,419.8 M233.8,444.9
		c6.2,3.2,19.5-19.5,25.9-23.2c2.8-1.7,9.7-4.4,8-2.3c-0.4,0.5-1.1,0.9-1.5,1.3c-4.6,4.3-7.6,7.6-11.3,13.6
		c-0.2,0.3-1.4,1.9-1.2,2.3c0.2,0.6,1.2-0.6,1.4-0.9c0.1-0.2,0.3-0.4,0.4-0.5c2.9-3.9,6-7.6,9.4-11.1c2.6-2.7,5.3-5.3,8.6-7.1
		c0.9-0.5,1.9-1.1,2.9-1.3c1.5-0.3,0.6,0.5,0.5,1.5c-0.1,0.9,0.4,2.2,1.6,4.7c1.3,2.7,3.2,5.5,3.2,7.4c0,0.2,0,0.5-0.1,0.7
		c-0.3,2.2-0.3,4-0.3,5.2c0,0.1,0,0.2,0,0.3c-0.4-0.4-0.8-0.7-1.4-0.7c-0.4,0-0.9,0-1.3,0c-8.3,0.2-16.6,1.7-24.5,4.3
		c-3.4,1.1-6.8,2.4-10.1,3.9c-1.5,0.7-2.9,1.3-4.3,2.1c-0.7,0.3-1.3,0.7-2,1c-0.7,0.4-1.7,0.8-2.4,0.9c-1.3,0.2-2-0.7-2.9-1.5
		c-0.9-0.8-1.9-1.6-2.6-2.6c-1.2-1.4-1.4-3.7-2-5.8c-0.4-1.2-0.7-2.1-1-2.8c0.3,0,1.7-0.2,2-0.3c2.5-0.3,2.9-1.6,2.9-3
		c0-7.3,0.5-11,0.7-12.3c0.2-1.4,4.1-3.5,5.6-4c1-0.3,1.3-0.4,1.9-0.5c0,0.1,0.8,0.9,1.5,0.7c1.2-0.4,1.6-1.5,1.6-1.5
		c0.6-0.4,1.9-1.1,2.9-1.5c1.5-0.6,4-1.4,4.4-2.4c1.1,0.2,2.7-1.3,2.9-1.1c1.6,2,7.6,10.1,3.7,13.7c-2.8,2.6-7.5,8.4-13.3,15.6
		c-4.4,5.5-7.3,6.1-8.4,6.2C234.2,443.9,233.1,444.5,233.8,444.9 M310.4,474.2c0.5-0.6,3-4.8,3.3-4.7l4.8,2.4
		c-0.6-0.3-1.7,3.9-1.9,4.2c-0.8,1.3-2.7,1.5-4,1.7c-1.6,0.3-3.4,0.3-4.9,1.1c-0.4,0.3-0.8,0.7-1.3,0.2c-0.3-0.4-0.2-1.1,0.1-1.5
		C307.4,476.4,310.6,476.1,310.4,474.2 M309.5,460.3c1.6-5.9,7.3-12.4,10.7-11.8c0,0-1.3,4.2-1.6,5.1l-4.6,12.5
		c-3.6,5.6-6.7,10.1-7.3,10.7C307,474.2,307.6,467,309.5,460.3 M142.9,484.1c-0.5,1-3.8,1.2-4.9,1.4c-1.4,0.3-2.9,0.2-3.6,0.2
		c-1.4,0-3.3,1.2-5.2,1.6c-0.6,0.1-3.6,0.8-4,0c-0.2-0.4,0.4-2.1,0.4-2.6c0.1-1.4-0.1-2.4-0.6-3.6c1.1-0.2,2.2,0.3,3.3,0.5
		c1.2,0.2,2.4,0.4,3.6,0.6c3.9,0.6,4.5,0.6,6.1,0.8C142.1,483.7,143.4,483,142.9,484.1 M123.1,478.7c-2.5,0.4-5.1,0.9-7.6,1.4
		c-1.6,0.3-3.1,0.6-4.7,1c-0.7,0.1-3.4,1.3-3.2,0.6c0.4-1.4,1.6-3.2,2.5-4.4c1.7-2.3,3.9-7.8,4.8-9.6c0.7-1.3,1.3-2.7,2.1-3.9
		c1.2-1.6,1.6-0.5,2.8,0.3c1.5,1,3.6,2.2,5.5,2.3c1.3,0.1,1.1,1.1,1,1.9C126.1,470.5,123.9,478.5,123.1,478.7 M123.4,488.4
		c-2,1.8-5,2.3-9.5,3.7c-4.7,1.5-9.4,3.2-10.5,3.5c-1.4,0.3-2.9,0.6-4.4,0.6c-1.8,0-3.6-0.4-5.2-1.8c-4.4-3.6-7.7-7.3-9-13.1
		c-0.1-0.5-0.3-3.6-0.4-4.4c6.5,1.2,16-2.4,16.6-2.1c0.5,0.6,0.3,4.5,0.7,5.7c0.2,0.6,1.2,2.9,1.1,3.4c-0.1,0.7-0.7,1-0.9,1.5
		c-0.2,0.8,1.1-0.1,1.4-0.3c1.4-1,3.1-1.2,4.7-1.6c1.9-0.4,3.7-0.9,5.6-1.4c1.5-0.4,3.1-0.7,4.7-1.1c0.7-0.1,1.3-0.3,2-0.4
		c0.6-0.1,1.3-0.4,2-0.2c0.5,0.1,0.7,0.5,1,0.9c0.8,1.2,1,3.3,1,3.4C124.2,485.9,124.4,487.5,123.4,488.4 M98.1,453.6
		c-0.7,0.3-1.6,1.3-2,1.2c-2.2-0.5-8.6-7-10.2-8.5c0.5-0.6,1.9-2,2.6-2.4c1.3-0.7,1.3-0.8,2.7-0.9c0.9-0.1,2.5-0.4,3.8-0.5
		c1.1-0.1,1.8,1.3,2.9,1.1c0.9-0.2-0.9-1.4-1.1-1.6c-1.3-1.2-0.5-5,0.8-5.8c1.2-0.7,2,0.3,2.1,1.4c0.1,1.1,0.5,2.3,1.9,2.4
		c0.8,0.1,1.7-0.2,2.3-0.6c0.6-0.4,0.8-0.9,1.2-1.5c0.5-0.8,0.9-0.4,1.6-0.5c0.6-0.1,1.2-0.7,1.6-1.1c0.9-0.9,1.3-1.6,2.7-2
		c1.6-0.6,3.2-0.5,4.8-0.3c0.6,0.1,1.4,0,1.9,0.3c0.7,0.4,1.2,1.6,1.5,2.4c0.4,1,0.1,2.4-0.3,3.3c-0.1,0.2-0.1,0.4-0.1,0.6
		c-0.1,0.4-1-0.4-1.1-0.4c-1.5-1-3.5-1.2-4.8-1.2c-0.7,0-1.2,0.1-1.2,0.1c-0.3,0-0.6,0.3-0.5,0.7c0,0.3,4.4,0.7,5.5,1.2
		c0.8,0.3,1.1,1.2,1,2c0,0.8-0.2,1.6-0.3,2.4c-0.2,1.4-0.4,2.7-0.6,4c-0.2,2.3-1,2.4-1.1,2.4c-0.4,0.1-1.2-0.5-2-0.8
		c-0.1,0-0.5-0.2-0.7,0c-0.3,0.4-0.6,1-0.6,1.5c0,0.2,0,0.4-0.2,0.6c-0.6,0.5-1.6-0.7-2.3-0.2c-0.6,0.4,0.2,0.9,0.4,1.3
		c0.6,1.1-0.4,1-1.1,1.6c-0.7,0.6-1.1,1.5-1.9,1.6c-0.2,0-0.4,0-0.6,0c-1-0.3-2-1.1-2.8-1.7C102.5,454.8,100,452.7,98.1,453.6
		 M89.2,432.6c0.5-1.8,1.1-4.5,2.3-6c4.1-5.3,7.2-5.5,10.2-6.3c1.6-0.4,2.1,0,3.7,0c3.1,0,5.7,0.6,6.8,1.1c2.7,1.2,5.3,3.4,7,5.9
		c1.2,1.8,3.2,7.2-0.8,6.2c-0.7-0.2-0.8-0.1-1.2-0.6c-0.2-0.2-0.5-1-0.9-0.8c-0.4,0.2,0.1,0.9-0.7,1c-0.4,0.1-1-0.2-1.5-0.2
		c-0.7,0-0.8,0-1.1-0.6c-0.3-0.5-0.5-1.1-1-0.5c-0.3,0.4-0.3,1.1-0.3,1.6c0-0.1-2.5,0.8-2.7,0.9c-0.4,0.3-1.8,1.4-2.3,1.1
		c-0.4-0.2-0.1-1.3-0.9-0.8c-0.4,0.3-0.4,1-0.6,1.3c-0.5,1-1.9,2.2-3.1,2.2c-1.2,0-1.2-1.1-1.6-1.9c-0.4-0.8-1.3-1.7-2.3-1.7
		c-0.8,0-1.5,0.5-2.2,1.4c-1,1.2-1,2.7-0.7,4.2c0.2,1.1,0.4,1-0.7,1.2c-0.9,0.1-2.6,0.6-3.4,0.7c-0.7,0.1,0.4-0.9-0.4-0.9
		c-0.1,0-1.2,0.7-1.3,0.7C90.4,438.9,88.4,435.7,89.2,432.6 M119.9,449.2c-0.5-0.9-1.4-1.3-1.6-2.3c2.3-2,4,3.3,2.3,5.3h-0.2
		C120.3,451.2,120.3,450.2,119.9,449.2 M127.4,448.4c0.9,2.7-0.6,11.7-1.1,13c-0.3,0.8-0.8,2.9-1.7,3.2c-0.5,0.2-1.6-0.2-2-0.4
		c-0.9-0.4-1.8-1-2.6-1.6c0.7-1.3,1.6-1.7,1.1-3.3c-0.3-0.9-0.8-4.3,0.6-6.3c0.9-1.3,1.5-3.6,1.1-5.2c-0.1-0.6-0.4-1.4-0.7-1.9
		c-0.4-0.7-1.4-0.9-2-1.4c-1.1-0.8-1-1.6-0.6-2.8c0-0.7,1.6,0.1,2.5,0.8C123.6,443.8,125.6,443.3,127.4,448.4 M218.4,282.5
		c-81.6,0-147.8,66.2-147.8,147.8c0,8.8,0.8,17.4,2.3,25.7c2.4-2.7,6.3-4.8,8.8-4.3c0.6,0.1,1.3,0.5,1.9,0.2c-0.4-1.2-3.4-1.5-4.4-2
		c-1.4-0.8,3.6-3.8,5-3.6c0.8,0.7,6.6,6.9,13.2,13c3.9,3.6,3.9,10.3,4.8,13.6c-0.2,1.1-18.2,2.3-24.6,2.5c0.1,0.4,0.3,0.9,0.4,1.3
		c0.4,0.1,0.8,0.1,1.4,0.2c1.2,0.4,2,0.4,2.5,2.8c1.4,8,6.3,11.9,9.7,14.6c2.7,2.4,2.8,6.4-1.9,8.8c0.3,0.6,0.7,1.2,1,1.8
		c3.3-1.2,8.5-2.8,8.2-2.7l0.3-4.5c0.9,0.4,1.7,0.4,4.6-0.5c1.2-0.4,16.4-4.8,18.1-5.4c1-0.3,2-1,2.7-1.9c0.1-0.2,1.5,0,2.1-0.1
		c1.6-0.2,3.1-0.7,4.1-0.9c2-0.4,16.9-4.8,16.9-4.8s0.5-0.1,0.5,0.3c0,0.2-0.1,2.2-0.3,3.9c-0.2,1.4-1,1.4-1,1.4
		s-42.8,10.2-45.8,10.8c-0.3,0.1-0.7,0.8-0.8,1.2c-0.1,0.4,20.7-5.3,35.3-6.2c3.5-0.2,8.3,1.6,5.5,11.3c-0.3,1.2-2.6,9.7-6.2,18.2
		c-1.9,4.6-4.3,9.1-6.8,12.5c-1.9,2.6-4,4.3-6,5c0.8,0.7,1.6,1.4,2.4,2c2-1.1,3.8-3,5.4-5.2c2.8-3.8,4.8-8,6.4-12.4
		c0.8-2.2,1.6-4.4,2.2-6.7c0.7-2.2,1.3-4.6,1.9-6.8c0.5-1.8,1.1-4.4,1.1-4.1c0.8-0.8-0.3,6.3-0.5,8.6c-0.4,5.5-1,8.2-1.7,13.7
		c-0.3,2.3-0.6,4.6-1,6.9c-0.2,1.2-0.3,2.6-0.9,3.7c-1.4,2.6-8.5,4.2-8.3,4.3c0,0,7.3,0.6,8.7,0.8c2.6,0.2,2.7,2.1,2.8,2.9
		c0,0,0.1,0.6-1.9,0.9c0,0-1.4,0.3-3.9,0.8c23.8,16.3,52.5,25.8,83.4,25.8c33.8,0,65-11.4,89.9-30.5c-1.9,0-10.9-0.1-10.5-1.2
		c0-0.1,0.4-3.3,3.7-3.6c3.3-0.2,3.2-3,3.2-3.6c2.5,1.8,6.5,5.3,6.5,5.3l-1.8,2.2c1.4-1.1,2.7-2.1,4-3.2c-9-4.1-14.8-11.2-18.8-11.5
		c-1.6-0.7-1.2-2.7-1-6.1c0.2-3.6,0.3-17.1,0.3-21.8c0.3-5.6,4.6-12.7,8-12.3c1.5,0.2,13,1.2,14.1,1.2c1,0.1-0.1-1-0.9-1.2
		c-1.1-0.2-20.2-3.3-24.5-4.2c-0.7-0.1-0.8-1.8-0.9-3.1c0.1-1.6,0.4-2.4,0.7-3.2c0.1-0.6,0.6-0.5,0.6-0.5l13.6,2.2
		c-0.7,0.2,0.2,1.4,2.7,2c1.1,0.2,4.8,0.2,4.3,0.2c6.6,1.4,6,3.8,10.9,3.3c2.7,1.2,25,8.9,26.5,8.7c0.5-0.1,0.8-0.1,1.2-0.2
		c0.3-0.6,0.6-1.2,0.9-1.9c-0.7-0.1-1.6-0.3-2.8-0.2c-1.1,0.1-18.9-5.6-21-6.6c-0.9-0.4-1.9-0.7-2.8-1.2c-1.1-0.7-0.3-1.2,0.1-2.1
		c0.6-1.2,1-2.8,1.1-4.1c0.1-0.8,0-1,0.2-1.2c0,0,0.2-0.1,0.5-0.1c3,0.1,6.9,1,9.9,1.6c1.2,0.2,7.4,2.4,8,1.5
		c0.2-0.3-0.6-1.1-0.6-1.5c0.4-2.5,1.5-5.3,2.3-7.7c0.4-1.3-0.1-4.8,1.5-5.3c4.1-1.2,9.1-0.4,11-0.3c0,0,1.5,0.2,1.5,4.8
		c0.7-2.3,1.3-4.6,1.9-6.9l-13.9,1.3c-1.6,0.2-3.4,0.5-5,0.8c-1.9,0.4-3.5,0.5-5.3,0.9c-1,0.3-1.7,0.2-1.5-0.8
		c0.3-2,1.1-4.2,1.6-5.4c0.6-1.7,0.6-1.6,1.2-3.2c1.2-3.1,2.6-9,4.5-9.7c0.5,0.6,3.2-1.7,4.2-2.6c3.6-3.3,10.9-6.4,8.6-8
		c1.8-0.9,3.3,1.5,3.9,3.1c-0.6,0.4-2,0.6-2.4,1.2c-0.8,1.2,4-1.2,7.4,4.2c0.7-5.7,1-11.4,1-17.2C366.2,348.6,300,282.5,218.4,282.5
		"/>
	<path class="st0" d="M112.9,444.7c0.3,0.1,0.7,0.1,1.1-0.3c0.6-0.4,1.4-1.3,1.6-2c0.2-0.7,0.2-1.2-0.6-1.4c-0.2-0.1-1-0.1-0.9,0.3
		c0,0.3,0.8,0.3,0.8,0.9c0,0.9-0.5,0.7-1.2,0.6c-0.6-0.1-1.2-0.1-1.8-0.3c-1.4-0.4-1.2,0.4-0.3,1.1
		C112.1,444.1,112.5,444.6,112.9,444.7"/>
	<path class="st0" d="M119.7,509.9c-1.4,0.3-2.8,2.6-3.5,3.7c-0.5,0.7-3.2,4.3-3.4,4.5c-3.5,2.5-6.5,3.1-10.4,3.8
		c0.8,1,1.6,2.1,2.5,3.1c2.5,0,5.9,0,5.9,0c0.9,0,0.7,3.6,0.1,3.6c-0.2,0-1.5,0-2.8,0.1c0.8,0.9,1.6,1.8,2.5,2.7
		c0.2-0.1,0.4-0.3,0.5-0.3c0.5-0.3,0.7-0.3,0.7-0.3c0.2,0,0.4-0.3,0.5-0.5c0.2-1.4,0.4-2.8,0.7-4.2c0.1-0.6,0.3-1.2,0.6-1.8
		c0.5-1.5,1-2.8,1.6-4.1c1.3-2.7,2-6.6,4.4-8.4c0.4-0.3,0.8-0.4,0.9-0.9c0.1-0.4,0-0.7-0.2-0.8C120.2,509.8,120,509.8,119.7,509.9"
		/>
	<path class="st0" d="M305.9,496.9c-0.4,1.7,10.4,10.4,15.2,13.1c3.4,1.9,7.3,3.6,7.7,9.6c0.2,2.3,0.8,5.2,1.4,7.3
		c3.6-4.2,7-8.6,10.1-13.1c-8.7-0.8-20.3-4.7-33.6-16.8C306.6,496.6,306,496.5,305.9,496.9"/>
	<path class="st0" d="M296.6,503.1c-3-2,13.4,35.3,16.3,33.9c2.2-1,4.4-0.5,6.2,1.3c0.7-0.6,1.3-1.3,2-1.9c-0.9-0.2-1.9-0.5-3-0.9
		C307.7,531.6,299.6,505.1,296.6,503.1"/>
	<path class="st0" d="M184.2,415.2c-0.7,1.5,0.8,2,1.5,1.6c1.1-0.6,1.8-4.3,1.7-4.4C187.3,412.3,184.7,414.3,184.2,415.2"/>
	<path class="st0" d="M264.6,495.6c-0.7-0.2-3,19.1-4.9,24.3c-2,5.6-3.5,7.7-6.6,9.5c-0.6,0.4-0.5,1.7-0.5,1.7s7.5-2.1,9.3-9.6
		c1.1-4.8,2.2-10.7,2.7-14.6c0.3-2.2,0.9-9.7,1-9.8v0C265.5,496.2,265.2,495.8,264.6,495.6"/>
	<path class="st0" d="M188.9,421.5c0.1,0.7,0.6,1.1,1.3,1c1.7-0.2,1.7-5,1.6-5.2C191.7,417.2,188.8,420.2,188.9,421.5"/>
	<path class="st0" d="M196.6,423.2c0,0.6,0.9,1.1,1.6,0.8c0.6-0.5,1.3-4.5,0.9-4.6C198.8,419.3,196.7,422,196.6,423.2"/>
	<path class="st0" d="M213.6,384.4c-1.4,0.7-2.1-0.2-2.2-0.1c-0.1,0.3,1.6,1.6,3.6,0.2c1.5-1.1,1.8-2.2,1.3-1.8
		C215.6,383.1,214.3,384,213.6,384.4"/>
	<path class="st0" d="M215.2,370.1c-0.9,0-1.8,0.3-2.5,0.8c-0.3,0.2-0.7,0.5-0.9,0.8c-0.2,0.3-0.1,0.3,0,0.7c0.1,0.3-0.2,0.9,0,1.1
		c0.2,0.2,0.8,0.1,1.1,0.1c1.1,0,2.3-0.7,2.9-1.6c0.2-0.3,1.2-1.7,1.1-2c-0.1-0.2-0.6-0.2-0.7,0.1c-0.6,2.2-3.2,3.1-3.6,2.2
		C212.2,371.3,215.6,370.1,215.2,370.1"/>
	<path class="st0" d="M212.7,379.6c0.2-0.1,0.4,0,0.4,0c0.2-0.1,0.2-0.3,0.1-0.5c-0.1-0.2-0.3-0.2-0.5-0.1c0,0-1,1-2,1.7
		c-0.4,0.3-0.9,0.3-0.9,0.3c-0.2,0.1-0.3,0.2-0.3,0.2c0,0.2,0.2,0.3,0.4,0.3c0,0,0.2,0,0.4-0.1c0,0,1.3-0.1,1.5-0.3
		C212.2,380.9,212.7,379.6,212.7,379.6"/>
	<path class="st0" d="M204.2,375.9c-0.5,0.2-2.2,1.1-1.6,1.9c-0.1-0.2,1.6-1.7,2.9-1.2c0.2,0.5-1.6,1.3-2.4,1.7
		c-0.6,1.6,1.9,0.2,2.3,0c0.9-0.6,1.2-1.3,1.7-1.5c0.4-0.2-0.9-0.9-1-1C205.6,375.5,204.6,375.7,204.2,375.9"/>
	<path class="st0" d="M214,381.4c-1.3,0.5-1.1,1.4-2.1,1.4c-1,0.1-1.4,0.7-1.4,0.8c-0.2,0.3,2.1,0.3,2.9-0.5
		c0.9-1.5,1.7-1.1,2.4-1.4c0.7-0.3,1.8-1.2,1.1-1C216.8,380.6,215.1,381.1,214,381.4"/>
	<path class="st0" d="M215.8,366.3c-1.8,0.1-2.2,0.3-3.7,0.9c-1.4,0.6-3.3,2.7-3.3,2.7s-0.4,1-0.1,2.1c0.3,1.1,0.4,1.1,0.8,1.7
		c0.5,0.6,1.1,0.7,1.1,0.7s-2.3-2.7-1-4.1c3.9-4.3,7.3-2.1,7.3-2.1S218.2,366.2,215.8,366.3"/>
	<path class="st0" d="M252.5,420.3c0-0.3-0.1-0.6-0.3-0.8c-0.5-0.7-2.9-2.3-3.1-2.2c-0.2,0.1,0.2,2.9,1.1,3.7
		C251.5,422,252.5,421,252.5,420.3"/>
	<path class="st0" d="M241.4,426.7c-0.2-1.1-2.7-3.7-3.1-3.5c-0.4,0.2,0.1,4,0.6,4.5C239.9,429,241.6,427.8,241.4,426.7"/>
	<path class="st0" d="M248.1,424.9c-0.4-0.5-3.1-3.8-3.4-3.6c-0.3,0.2,0.7,4.5,1.6,5.3C247.5,427.3,248.6,426.1,248.1,424.9"/>
	<path class="st0" d="M273,471.5c1.3,0,0.3-0.9,6.8-0.9c0.7,0,0.7-0.9,0.1-0.9h-6.4C271.5,469.7,271.7,471.5,273,471.5"/>
	<path class="st0" d="M236.3,434.2c0.2,0,0.3,0,0.5-0.1c0.4-0.1,0.5-0.5,0.5-0.8c-0.1-1.2-1.6-3.4-1.6-3.4c0,0-0.6-1.1-0.7-1
		c-0.1,0.1-0.1,1.2-0.1,1.2c-0.1,0.4-0.1,0.9-0.1,1.2C234.8,433.1,235.3,434.1,236.3,434.2"/>
	<path class="st0" d="M165,472.1h-7.8c-0.6,0-0.2,0.5,0.5,0.5c6.6,0,6.4,1.3,7.8,1.3C166.8,473.9,167,472.1,165,472.1"/>
	<path class="st0" d="M251,480c-2.3,0-12.3,19.9-33.2,6.1c-0.9-0.5-2.8-2.6-3.1-2.1c-0.3,0.4,0.8,1.6,1.3,2.1
		C236.4,506.6,254,480,251,480"/>
</g>
</svg>
