<?xml version="1.0" encoding="utf-8"?>
<!-- Generator: Adobe Illustrator 28.0.0, SVG Export Plug-In . SVG Version: 6.00 Build 0)  -->
<svg version="1.1" id="Layer_1" xmlns="http://www.w3.org/2000/svg" xmlns:xlink="http://www.w3.org/1999/xlink" x="0px" y="0px"
	 viewBox="0 0 1000 1000" style="enable-background:new 0 0 1000 1000;" xml:space="preserve">
<style type="text/css">
	.st0{opacity:0.05;fill: #2667fe;}
</style>
<path class="st0" d="M608.2,419.1c-39.7,0-72.2,25.6-72.2,57c0,31.8,32.5,57.4,72.2,57.4c22.5,0,43.2-8,56.7-21.8l35.6-35.6
	l-35.6-35.6C651.3,427.1,630.6,419.1,608.2,419.1"/>
<path class="st0" d="M739.1,522.8c-27.7,0-50.1,21.8-50.8,49.8v242.3c0,3.5-0.3,6.9-0.3,10c0,1.7-0.3,3.5-0.3,5.2
	c0,0.7-0.3,1.4-0.3,2.1c-2.1,18-6.9,33.9-13.8,47.7c-28,51.8-87.8,65-117.5,68.1c-11.8,1-25.2,1.7-40.8,1.7H509c-0.7,0-1.4,0-2.1,0
	c-1.7,0-3.1,0-4.8-0.3c-36.3-1.4-86.7-10.4-115.4-22.8c-29.4-12.8-56-31.5-80.2-56C227.7,790.6,182.4,651,184.8,497.2
	c4.8-303.8,167.6-439.9,326.9-439.9c92.6,0,141.3,15.9,167.3,24.2c10.4,3.5,17.3,5.9,23.2,5.9c7.3,0,13.1-5.9,13.8-13.5v-0.7
	c0.3-6.2-3.1-11.8-8.6-15.2c-24.5-15.2-115.4-37-202.1-37c-121.6,0-232.9,43.9-312.8,123.4c-87.1,86.4-133.8,209.4-134.8,356
	c-1,141,48,272,134.4,359.1c30.4,30.8,65,55.3,103.3,74H295c0,0,79.1,46.7,221.9,46.7c74.3,0,106.1-7.6,106.1-7.6l0,0
	c87.1-14.9,167.3-71.9,167.3-157.6V572.5C789.2,544.6,766.8,522.8,739.1,522.8"/>
<path class="st0" d="M682.1,345.9c0,22.1,8,42.5,21.4,56.3l35.9,35.6l35.2-35.2c13.8-13.8,22.1-34.6,22.1-56.7
	c0-39.7-25.6-72.2-57.4-72.2S682.1,305.8,682.1,345.9"/>
<path class="st0" d="M870.5,419.1c-22.5,0-42.8,8-56.7,21.4l-35.6,35.6l35.2,35.6c13.8,13.8,34.6,21.8,57,21.8
	c39.7,0,72.2-25.9,72.2-57.4C942.3,445,910.2,419.1,870.5,419.1"/>
</svg>
