<?xml version="1.0" encoding="utf-8"?>
<!-- Generator: Adobe Illustrator 28.0.0, SVG Export Plug-In . SVG Version: 6.00 Build 0)  -->
<svg version="1.1" id="Layer_1" xmlns="http://www.w3.org/2000/svg" xmlns:xlink="http://www.w3.org/1999/xlink" x="0px" y="0px"
	 viewBox="0 0 1000 1000" style="enable-background:new 0 0 1000 1000;" xml:space="preserve">
<style type="text/css">
	.st0{fill:#FFFFFF;}
</style>
<path class="st0" d="M608.15,419.11c-39.74,0-72.23,25.57-72.23,57.02c0,31.79,32.49,57.37,72.23,57.37
	c22.46,0,43.2-7.95,56.68-21.77l35.6-35.6l-35.6-35.6C651.35,427.06,630.61,419.11,608.15,419.11"/>
<path class="st0" d="M739.13,522.79c-27.65,0-50.11,21.77-50.8,49.76v242.26c0,3.46-0.35,6.91-0.35,10.02
	c0,1.73-0.35,3.46-0.35,5.18c0,0.69-0.35,1.38-0.35,2.07c-2.07,17.97-6.91,33.87-13.82,47.69c-27.99,51.84-87.78,64.97-117.5,68.08
	c-11.75,1.04-25.23,1.73-40.78,1.73h-6.22c-0.69,0-1.38,0-2.07,0c-1.73,0-3.11,0-4.84-0.35c-36.29-1.38-86.74-10.37-115.43-22.81
	c-29.37-12.79-55.98-31.45-80.18-55.98C227.66,790.62,182.39,651,184.81,497.22c4.84-303.77,167.61-439.93,326.92-439.93
	c92.62,0,141.34,15.9,167.26,24.19c10.37,3.46,17.28,5.88,23.15,5.88c7.26,0,13.13-5.88,13.82-13.48v-0.69
	c0.35-6.22-3.11-11.75-8.64-15.21C682.8,42.77,591.91,21,505.17,21c-121.65,0-232.92,43.89-312.75,123.37
	C105.32,230.77,58.67,353.8,57.63,500.33c-1.04,141,48.04,271.98,134.43,359.06c30.41,30.76,64.97,55.29,103.33,73.96h-0.35
	c0,0,79.14,46.65,221.87,46.65c74.3,0,106.09-7.6,106.09-7.6l0,0c87.09-14.86,167.26-71.88,167.26-157.59V572.55
	C789.24,544.56,766.77,522.79,739.13,522.79"/>
<path class="st0" d="M682.11,345.85c0,22.12,7.95,42.51,21.43,56.33l35.94,35.6l35.25-35.25c13.82-13.82,22.12-34.56,22.12-56.68
	c0-39.74-25.57-72.23-57.37-72.23C707.68,273.62,682.11,305.76,682.11,345.85"/>
<path class="st0" d="M870.45,419.11c-22.46,0-42.85,7.95-56.68,21.43l-35.6,35.6l35.25,35.6c13.82,13.82,34.56,21.77,57.02,21.77
	c39.74,0,72.23-25.92,72.23-57.37C942.33,445.03,910.19,419.11,870.45,419.11"/>
</svg>
