<svg width="24" height="24" viewBox="0 0 24 24" fill="none" xmlns="http://www.w3.org/2000/svg"><g id="it-network"><g id="data"><rect x="2" y="2" width="7" height="6" rx="2.08" fill="currentColor"/><rect x="16" y="3" width="6" height="4" rx="1.29" fill="currentColor"/><rect x="16" y="10.5" width="6" height="4" rx="1.29" fill="currentColor"/><rect x="16" y="18" width="6" height="4" rx="1.29" fill="currentColor"/><path opacity="0.3" d="M16,13.25a.75.75,0,0,0,0-1.5H13.25v-6H16a.75.75,0,0,0,0-1.5H9a.75.75,0,0,0,0,1.5h2.75V17.82a2.93,2.93,0,0,0,2.93,2.93H16a.75.75,0,0,0,0-1.5H14.68a1.43,1.43,0,0,1-1.43-1.43V13.25Z" fill="currentColor"/></g></g></svg>
